<svg width="24" height="24" viewBox="0 0 24 24" fill="none" xmlns="http://www.w3.org/2000/svg">
<path d="M24 11.2969H20.7413C18.9439 11.2969 17.2035 11.824 15.7081 12.8212C14.4445 13.6639 12.9738 14.1094 11.4551 14.1094H4.26562V12.7031H5.67188V11.2969H4.26562V4.96875C4.26562 3.80566 5.21191 2.85938 6.375 2.85938C7.53809 2.85938 8.48438 3.80566 8.48438 4.96875V5.79272C7.66589 6.08313 7.07812 6.86462 7.07812 7.78125V8.48438H5.67188V9.89062H12.7031V8.48438H11.2969V7.78125C11.2969 6.86462 10.7091 6.08313 9.89062 5.79272V4.96875C9.89062 3.03021 8.31354 1.45312 6.375 1.45312C4.43646 1.45312 2.85938 3.03021 2.85938 4.96875V11.2969H1.45312V12.7031H2.85938V14.1094H0V15.5156H1.45312V17.625C1.45312 19.3228 2.6629 20.7433 4.26562 21.0699V22.5469H5.67188V21.1406H18.3281V22.5469H19.7344V21.0699C21.3371 20.7433 22.5469 19.3228 22.5469 17.625V12.7031H24V11.2969Z" fill="#D266F9"/>
</svg>
