<svg width="24" height="23" viewBox="0 0 24 23" fill="none" xmlns="http://www.w3.org/2000/svg">
<g clip-path="url(#clip0)">
<path d="M17.6232 17.3937H5.48382V21.5511C5.48382 21.5716 5.4829 21.592 5.48217 21.6124H17.6248C17.6241 21.592 17.6232 21.5716 17.6232 21.5511V17.3937Z" fill="#D266F9"/>
<path d="M0.701843 6.83199H13.5163C13.9039 6.83199 14.2181 6.53087 14.2181 6.15939V1.61596C14.2181 1.24448 13.9039 0.943359 13.5163 0.943359H0.701843C0.314209 0.943359 0 1.24448 0 1.61596V6.15939C0 6.53087 0.314209 6.83199 0.701843 6.83199Z" fill="#D266F9"/>
<path d="M21.1144 11.0503V13.1751H21.5134V7.71711H23.2981C23.5133 7.71711 23.7165 7.62253 23.8496 7.46056C23.9828 7.29842 24.0309 7.0868 23.9804 6.88641L22.907 2.6348C22.8308 2.33298 22.549 2.1203 22.225 2.1203H19.3982C19.0743 2.1203 18.7923 2.33298 18.7161 2.6348L17.6427 6.88641C17.5922 7.0868 17.6404 7.29842 17.7735 7.46056C17.9066 7.62253 18.1098 7.71711 18.325 7.71711H20.1097V9.33096C20.712 9.68648 21.1144 10.3242 21.1144 11.0503Z" fill="#D266F9"/>
<path d="M17.6232 16.0484V15.0301C17.6232 14.0072 18.4915 13.1751 19.5588 13.1751H19.7106V11.0503C19.7106 10.6793 19.3958 10.3777 19.0087 10.3777H4.09808C3.71118 10.3777 3.39624 10.6793 3.39624 11.0503V13.1751H3.54803C4.61536 13.1751 5.48364 14.0072 5.48364 15.0301V16.0484H17.6232Z" fill="#D266F9"/>
<path d="M4.07996 15.0301C4.07996 14.7491 3.84137 14.5203 3.54803 14.5203H1.0426C0.749268 14.5203 0.510681 14.7491 0.510681 15.0301V21.5511C0.510681 21.8322 0.749268 22.0609 1.0426 22.0609H3.54803C3.84137 22.0609 4.07996 21.8322 4.07996 21.5511V15.0301Z" fill="#D266F9"/>
<path d="M22.5963 21.5511V15.0301C22.5963 14.7491 22.3575 14.5203 22.0642 14.5203H19.5588C19.2654 14.5203 19.0268 14.7491 19.0268 15.0301V21.5511C19.0268 21.8322 19.2654 22.0609 19.5588 22.0609H22.0642C22.3575 22.0609 22.5963 21.8322 22.5963 21.5511Z" fill="#D266F9"/>
</g>
<defs>
<clipPath id="clip0">
<rect width="24" height="23" fill="white"/>
</clipPath>
</defs>
</svg>
