<svg width="17" height="17" viewBox="0 0 17 17" fill="none" xmlns="http://www.w3.org/2000/svg">
<g clip-path="url(#clip0)">
<path d="M11.7463 8.91325C11.7133 8.96281 11.7133 9.01237 11.6967 9.07846C11.6802 9.29323 11.8454 9.49148 12.0602 9.508C12.275 9.52453 12.4732 9.35931 12.4898 9.14454C12.4898 9.09498 12.4898 9.04541 12.5063 8.96281C12.5063 8.8802 12.5063 8.83064 12.5063 8.78108C12.5063 8.30197 12.4237 7.83938 12.275 7.39331C12.0767 6.81507 11.7298 6.30292 11.3168 5.87337C10.8046 5.36121 10.1768 4.99775 9.4664 4.7995C9.13598 4.71689 8.77251 4.66733 8.42557 4.66733C8.30992 4.66733 8.19427 4.66733 8.06211 4.68385C7.94646 4.70037 7.83081 4.71689 7.71516 4.73341C7.50039 4.76645 7.3517 4.98123 7.40126 5.17948C7.4343 5.39426 7.64908 5.54295 7.84733 5.49338C7.94646 5.47686 8.02906 5.46034 8.12819 5.46034C8.14471 5.46034 8.16123 5.46034 8.17775 5.46034C8.26036 5.46034 8.34296 5.44382 8.42557 5.44382C9.33423 5.44382 10.1768 5.80728 10.7716 6.41856C11.3663 7.01332 11.7298 7.82285 11.7463 8.73151V8.76456C11.7463 8.83064 11.7463 8.8802 11.7463 8.91325Z" fill="#D266F9"/>
<path d="M13.9271 9.27672C13.9106 9.49149 14.0758 9.68974 14.2905 9.70626C14.5053 9.72279 14.7036 9.55757 14.7201 9.3428C14.7366 9.16107 14.7366 8.97934 14.7366 8.79761C14.7366 8.43414 14.7036 8.0872 14.654 7.74026C14.4392 6.41857 13.7949 5.22905 12.8863 4.32039C11.8454 3.27956 10.4577 2.6022 8.92119 2.48655C8.75598 2.47003 8.57425 2.47003 8.40904 2.47003C8.22731 2.47003 8.04558 2.47003 7.86384 2.48655C7.68211 2.50307 7.50038 2.51959 7.31865 2.55264C7.10387 2.58568 6.95518 2.80045 7.00475 2.99871C7.03779 3.21348 7.25256 3.36217 7.45082 3.31261C7.56646 3.29609 7.66559 3.27956 7.78124 3.26304C7.8308 3.26304 7.88036 3.24652 7.92993 3.24652C8.09514 3.23 8.26035 3.23 8.40904 3.23C8.97076 3.23 9.49943 3.31261 10.0116 3.4613C10.9037 3.72563 11.6967 4.20474 12.3411 4.84907C12.8697 5.37774 13.2993 6.02206 13.5801 6.71595C13.828 7.34375 13.9766 8.03763 13.9766 8.76456C13.9766 8.81413 13.9766 8.88021 13.9766 8.92977C13.9436 9.06194 13.9271 9.16107 13.9271 9.27672Z" fill="#D266F9"/>
<path d="M14.4888 2.73436C12.9193 1.16486 10.7716 0.206635 8.39252 0.206635C8.14471 0.206635 7.89689 0.223156 7.64907 0.239677C7.40126 0.256198 7.15344 0.28924 6.90562 0.338803C6.69085 0.371846 6.54216 0.58662 6.59172 0.784873C6.62476 0.999648 6.83954 1.14834 7.03779 1.09877C7.15344 1.08225 7.25257 1.06573 7.36821 1.04921C7.48386 1.03269 7.59951 1.01617 7.71516 1.01617C7.94645 0.999648 8.16123 0.983127 8.39252 0.983127C10.5403 0.983127 12.4898 1.85875 13.9106 3.26304C15.3149 4.66734 16.1905 6.61683 16.1905 8.78109C16.1905 8.89674 16.1905 9.02891 16.1905 9.14456C16.1905 9.24368 16.174 9.34281 16.174 9.45846C16.1574 9.67323 16.3226 9.87148 16.5374 9.88801C16.7522 9.90453 16.9505 9.73932 16.967 9.52454C16.9835 9.27672 17 9.02891 17 8.79761C17 6.43509 16.0418 4.28735 14.4888 2.73436Z" fill="#D266F9"/>
<path d="M16.3887 12.7461L13.4645 11.1766C12.4898 10.6479 12.4567 10.9949 11.4324 12.0853C11.1846 12.3496 10.722 13.0435 10.1768 12.9113C9.03685 12.6305 6.90562 10.9618 6.21174 10.2019C5.88132 9.83841 4.4605 8.1037 4.44398 7.54198C4.41094 6.68288 6.29434 6.25333 5.68306 4.61774L4.3779 1.69351C3.15533 -1.11507 -0.264535 3.37866 0.0163242 5.47684C0.743253 10.6479 9.81334 19.0076 14.8688 16.2486C15.9922 15.6208 17.5122 13.4235 16.3887 12.7461Z" fill="#D266F9"/>
</g>
<defs>
<clipPath id="clip0">
<rect width="17" height="17" fill="white"/>
</clipPath>
</defs>
</svg>
