<?xml version="1.0" encoding="utf-8"?><svg width="24" height="24" fill="none" xmlns="http://www.w3.org/2000/svg" viewBox="0 0 24 24"><path d="M24 11.297h-3.259a9.043 9.043 0 0 0-5.033 1.524 7.641 7.641 0 0 1-4.253 1.288h-7.19v-1.406h1.407v-1.406H4.266V4.969c0-1.163.946-2.11 2.109-2.11s2.11.947 2.11 2.11v.824A2.113 2.113 0 0 0 7.077 7.78v.703H5.672v1.407h7.031V8.484h-1.406v-.703c0-.916-.588-1.698-1.406-1.988v-.824a3.52 3.52 0 0 0-3.516-3.516A3.52 3.52 0 0 0 2.859 4.97v6.328H1.453v1.406H2.86v1.406H0v1.407h1.453v2.109a3.522 3.522 0 0 0 2.813 3.445v1.477h1.406V21.14h12.656v1.406h1.406V21.07a3.522 3.522 0 0 0 2.813-3.445v-4.922H24v-1.406z" fill="#D266F9"/></svg>