<?xml version="1.0" encoding="utf-8"?><svg width="24" height="23" fill="none" xmlns="http://www.w3.org/2000/svg" viewBox="0 0 24 23"><g clip-path="url(#fclip0)" fill="#D266F9"><path d="M17.623 17.394H5.483v4.218h12.142l-.002-.06v-4.158zM.702 6.832h12.814c.388 0 .702-.301.702-.673V1.616c0-.372-.314-.673-.702-.673H.702C.314.943 0 1.244 0 1.616v4.543c0 .372.314.673.702.673zM21.114 11.05v2.125h.4V7.717h1.784a.714.714 0 0 0 .552-.256.651.651 0 0 0 .13-.575l-1.073-4.251a.697.697 0 0 0-.682-.515h-2.827a.697.697 0 0 0-.682.515l-1.073 4.251c-.05.2-.003.412.13.575a.714.714 0 0 0 .552.256h1.785v1.614a2.002 2.002 0 0 1 1.004 1.72zM17.623 16.048V15.03c0-1.023.868-1.855 1.936-1.855h.152V11.05c0-.37-.315-.672-.702-.672H4.099c-.388 0-.703.301-.703.672v2.125h.152c1.067 0 1.936.832 1.936 1.855v1.018h12.14zM4.08 15.03a.522.522 0 0 0-.532-.51H1.043a.522.522 0 0 0-.532.51v6.521c0 .281.238.51.532.51h2.505a.522.522 0 0 0 .532-.51v-6.52zM22.596 21.551v-6.52a.522.522 0 0 0-.532-.51H19.56a.522.522 0 0 0-.532.51v6.52c0 .281.238.51.532.51h2.505a.522.522 0 0 0 .532-.51z"/></g><defs><clipPath id="fclip0"><path fill="#fff" d="M0 0h24v23H0z"/></clipPath></defs></svg>