<svg width="78" height="78" viewBox="0 0 78 78" fill="none" xmlns="http://www.w3.org/2000/svg">
<g clip-path="url(#clip0)">
<path d="M75.1912 65.7927L66.2462 46.6106C61.3071 53.8023 53.5953 58.9233 44.6684 60.4762L52.1564 76.5334C53.1137 78.588 56.0765 78.4509 56.8475 76.3291L60.6855 65.7863L61.4765 65.4174L72.0194 69.2554C74.135 70.0318 76.1473 67.8392 75.1912 65.7927Z" fill="#D266F9"/>
<path d="M39.0002 0C23.5851 0 11.0426 12.5417 11.0426 27.9575C11.0426 43.3733 23.5852 55.915 39.0002 55.915C54.4152 55.915 66.9577 43.3733 66.9577 27.9575C66.9577 12.5417 54.4154 0 39.0002 0ZM52.6035 25.9033L47.6461 30.736L48.8176 37.5616C49.1758 39.6455 46.9801 41.2111 45.1292 40.2405L39.0003 37.0188L32.8714 40.2404C31.0099 41.2178 28.8268 39.6338 29.183 37.5614L30.3545 30.7358L25.3971 25.9032C23.8904 24.4343 24.7266 21.8702 26.8055 21.5681L33.6575 20.5728L36.722 14.3643C37.6493 12.4789 40.3507 12.4773 41.2791 14.3643L44.3436 20.5728L51.1956 21.5681C53.2742 21.87 54.1102 24.4343 52.6035 25.9033Z" fill="#D266F9"/>
<path d="M11.7542 46.6106L2.80922 65.7927C1.84869 67.8488 3.87913 70.0293 5.98117 69.255L16.524 65.417L17.3149 65.7858L21.1529 76.3288C21.9224 78.4462 24.8847 78.5921 25.8441 76.5332L33.3321 60.476C24.4052 58.9233 16.6935 53.8024 11.7542 46.6106Z" fill="#D266F9"/>
</g>
<defs>
<clipPath id="clip0">
<rect width="78" height="78" fill="white"/>
</clipPath>
</defs>
</svg>
