<svg width="78" height="78" viewBox="0 0 78 78" fill="none" xmlns="http://www.w3.org/2000/svg">
<g clip-path="url(#clip0)">
<path d="M41.2893 0V14.7519C46.2894 15.2202 50.8556 17.2052 54.5201 20.2427L64.9585 9.80393C58.3673 3.92864 50.1042 0.505934 41.2893 0Z" fill="#D266F9"/>
<path d="M48.3683 41.2893C47.5173 44.7716 44.7716 47.5171 41.2893 48.3683V58.6452C50.3691 57.5939 57.5936 50.3693 58.6451 41.2893H48.3683Z" fill="#D266F9"/>
<path d="M41.2893 19.355V29.6283C42.2497 29.8609 43.1647 30.2399 44.0082 30.7544L51.2664 23.4963C48.4569 21.2687 45.0307 19.7882 41.2893 19.355Z" fill="#D266F9"/>
<path d="M42.5837 35.4183C42.5834 35.418 42.583 35.4177 42.5827 35.4174C42.5824 35.4171 42.5821 35.4167 42.5816 35.4164C41.6247 34.4599 40.353 33.9334 39.0002 33.9336C36.2059 33.9336 33.9333 36.2064 33.9333 38.9999C33.9333 41.7936 36.2063 44.0664 39 44.0664C41.7938 44.0663 44.0668 41.7936 44.0668 39.0002C44.0668 37.6473 43.5401 36.3752 42.5837 35.4183Z" fill="#D266F9"/>
<path d="M29.6319 41.2893H19.3551C20.4064 50.3693 27.631 57.5939 36.711 58.6452V48.3683C33.2286 47.5173 30.4829 44.7716 29.6319 41.2893Z" fill="#D266F9"/>
<path d="M19.3551 36.7107H29.6319C30.4831 33.2285 33.2286 30.4829 36.711 29.6319V19.355C27.631 20.4063 20.4064 27.6309 19.3551 36.7107Z" fill="#D266F9"/>
<path d="M54.5039 26.7336L47.2456 33.9919C47.7601 34.8354 48.1391 35.7506 48.372 36.7108H58.645C58.2116 32.9697 56.7311 29.5433 54.5039 26.7336Z" fill="#D266F9"/>
<path d="M14.7519 41.2893H0C0.549656 50.8638 4.53786 59.7887 11.3746 66.6253C18.2115 73.462 27.1364 77.4504 36.7109 78V63.2483C25.1043 62.1612 15.8392 52.8962 14.7519 41.2893Z" fill="#D266F9"/>
<path d="M63.2483 41.2891C62.1612 52.8961 52.8959 62.1611 41.2893 63.2483V78.0001C50.8638 77.4504 59.7889 73.4622 66.6256 66.6254C73.4622 59.7886 77.4504 50.8637 77.9999 41.2892H63.2483V41.2891Z" fill="#D266F9"/>
<path d="M68.1959 13.0413L57.7573 23.48C60.7948 27.1448 62.7798 31.7107 63.2481 36.7109H78C77.4939 27.8957 74.0712 19.6324 68.1959 13.0413Z" fill="#D266F9"/>
<path d="M11.3746 11.3754C4.53786 18.2123 0.549809 27.1371 0 36.7117H14.7519C15.839 25.1049 25.1043 15.84 36.711 14.7527V0.000976562C27.1365 0.55048 18.2115 4.53854 11.3746 11.3754Z" fill="#D266F9"/>
</g>
<defs>
<clipPath id="clip0">
<rect width="78" height="78" fill="white"/>
</clipPath>
</defs>
</svg>
