<svg width="78" height="78" viewBox="0 0 78 78" fill="none" xmlns="http://www.w3.org/2000/svg">
<path d="M39 54.9961C47.8193 54.9961 54.9961 47.8193 54.9961 39C54.9961 30.1807 47.8193 23.0039 39 23.0039C30.1807 23.0039 23.0039 30.1807 23.0039 39C23.0039 47.8193 30.1807 54.9961 39 54.9961ZM31.4751 37.3843L36.7148 42.6241L46.5249 32.814L49.7563 36.0454L36.7148 49.0868L28.2437 40.6157L31.4751 37.3843Z" fill="#D266F9"/>
<path d="M39 78C39.457 77.6168 68.707 70.0234 68.707 39V9.14062H61.0684C45.3276 9.14062 40.0783 0.61116 39 0C37.9794 0.57843 32.5903 9.14062 16.9316 9.14062H9.29297V39C9.29297 70.0222 38.543 77.6168 39 78ZM39 18.2812C50.3407 18.2812 59.5664 27.6593 59.5664 39C59.5664 50.3407 50.3407 59.5664 39 59.5664C27.6593 59.5664 18.4336 50.3407 18.4336 39C18.4336 27.6593 27.6593 18.2812 39 18.2812Z" fill="#D266F9"/>
</svg>
