<svg width="49" height="49" viewBox="0 0 49 49" fill="none" xmlns="http://www.w3.org/2000/svg">
<g clip-path="url(#clip0)">
<path d="M47.3141 26.8878L22.0758 1.67664C20.9619 0.564778 19.4301 -0.0312708 17.8576 0.00624279L4.5997 0.346991C2.25302 0.405345 0.363794 2.29665 0.308566 4.64125L0.001163 17.8825C-0.0373926 19.456 0.582623 20.9649 1.69657 22.0778L26.9349 47.2869C29.1815 49.5314 32.8182 49.5762 35.0628 47.3306L47.3183 35.0616C49.5628 32.8171 49.5607 29.1324 47.3141 26.8878ZM9.00963 15.4327C7.24336 13.6695 7.24232 10.8112 9.00442 9.04493C10.7676 7.28075 13.628 7.28075 15.3921 9.0418C17.1563 10.8049 17.1574 13.6653 15.3953 15.4285C13.6321 17.1937 10.7728 17.1937 9.00963 15.4327ZM17.5315 23.149C16.9031 22.5279 16.4446 21.7537 16.305 21.2764L17.5721 20.498C17.7357 20.9982 18.0806 21.6776 18.611 22.2007C19.1821 22.7645 19.7166 22.826 20.073 22.4675C20.4106 22.1247 20.3439 21.6714 19.9146 20.7815C19.3154 19.5623 19.2196 18.4692 20.0094 17.6689C20.9348 16.731 22.427 16.7852 23.7243 18.0649C24.3433 18.6776 24.6705 19.259 24.8529 19.728L23.5857 20.4584C23.4701 20.1364 23.2314 19.5925 22.6927 19.061C22.1529 18.5296 21.6517 18.5171 21.3703 18.8037C21.0233 19.1538 21.1807 19.6144 21.6267 20.5835C22.2415 21.9017 22.1988 22.8583 21.436 23.6346C20.5242 24.5557 19.0403 24.6381 17.5315 23.149ZM23.5461 28.924L24.5142 27.0942L22.9386 25.5384L21.1557 26.5648L19.8656 25.2904L26.9724 21.4494L28.6042 23.0615L24.882 30.2422L23.5461 28.924ZM25.2144 30.5694L30.6404 25.0705L31.8908 26.3032L27.4923 30.7559L29.6796 32.915L28.649 33.9591L25.2144 30.5694ZM36.7915 33.1547L34.646 31.0373L33.5174 32.1793L35.5411 34.1769L34.5418 35.1898L32.5192 33.1922L31.2322 34.4958L33.4914 36.7279L32.4858 37.748L28.9783 34.2863L34.4063 28.7885L37.7982 32.1387L36.7915 33.1547Z" fill="#D266F9"/>
<path d="M24.0378 24.7881L25.2529 25.9875L26.8149 23.1313C26.4127 23.3772 24.0378 24.7881 24.0378 24.7881Z" fill="#D266F9"/>
</g>
<defs>
<clipPath id="clip0">
<rect width="49" height="49" fill="white"/>
</clipPath>
</defs>
</svg>
