<svg width="78" height="78" viewBox="0 0 78 78" fill="none" xmlns="http://www.w3.org/2000/svg">
<path d="M18.2277 15.8156L49.3226 7.32796L47.6759 3.9995C46.5985 1.83599 43.9708 0.942562 41.8073 2.01993L13.9708 15.8156H18.2277Z" fill="#D266F9"/>
<path d="M58.9752 7.57324C58.5899 7.57324 58.2044 7.6258 57.819 7.73091L50.514 9.72798L28.2044 15.8156H53.527H64.5635L63.1971 10.8054C62.6715 8.85207 60.9022 7.57324 58.9752 7.57324Z" fill="#D266F9"/>
<path d="M69.127 18.8813H68.1285H66.7708H65.4131H55.0511H16.9752H11.9825H7.7781H6.99854H4.38832C3.00438 18.8813 1.76934 19.5208 0.963504 20.5281C0.59562 20.9923 0.315328 21.5266 0.157664 22.1135C0.0613139 22.4813 0 22.8667 0 23.2609V23.7865V28.7792V72.058C0 74.4756 1.96204 76.4376 4.37956 76.4376H69.1182C71.5358 76.4376 73.4978 74.4756 73.4978 72.058V59.839H47.5095C43.4015 59.839 40.0642 56.5018 40.0642 52.3938V48.3821V47.0244V45.6667V42.6536C40.0642 40.639 40.87 38.8084 42.1752 37.4683C43.3314 36.277 44.8818 35.4711 46.6161 35.2697C46.9051 35.2347 47.2029 35.2171 47.5007 35.2171H69.854H71.2117H72.5693H73.4978V23.2609C73.5066 20.8434 71.5445 18.8813 69.127 18.8813Z" fill="#D266F9"/>
<path d="M76.5723 39.4037C76.1343 39.0008 75.6175 38.6942 75.0394 38.4928C74.5926 38.3439 74.1197 38.2563 73.6204 38.2563H73.5066H73.419H72.0613H67.165H47.5095C45.0919 38.2563 43.1299 40.2183 43.1299 42.6359V44.8168V46.1745V47.5322V52.3847C43.1299 54.8022 45.0919 56.7643 47.5095 56.7643H73.5066H73.6204C74.1197 56.7643 74.5927 56.6767 75.0394 56.5278C75.6175 56.3351 76.1343 56.0198 76.5723 55.6168C77.4482 54.8198 78 53.6636 78 52.3848V42.6359C78 41.357 77.4482 40.2007 76.5723 39.4037ZM56.654 48.3818C56.654 49.5906 55.673 50.5716 54.4642 50.5716H53.0102C51.8014 50.5716 50.8204 49.5906 50.8204 48.3818V46.9278C50.8204 46.2271 51.1445 45.6051 51.6613 45.2109C52.0379 44.9219 52.5023 44.738 53.0102 44.738H53.3781H54.4642C55.673 44.738 56.654 45.7189 56.654 46.9278V48.3818Z" fill="#D266F9"/>
</svg>
