<svg width="24" height="24" viewBox="0 0 24 24" fill="none" xmlns="http://www.w3.org/2000/svg">
<g clip-path="url(#clip0)">
<path d="M23.7391 18.5217C23.7391 17.5028 23.0829 16.6422 22.1739 16.3181V14.6087H22.9566C23.3886 14.6087 23.7392 14.2581 23.7392 13.8261C23.7392 13.394 23.3886 13.0434 22.9566 13.0434H20.6087V2.34783C20.6087 1.05319 19.5555 0 18.2609 0H5.73915C4.4445 0 3.39132 1.05319 3.39132 2.34783V13.0435H1.04349C0.611442 13.0435 0.260864 13.3941 0.260864 13.8261C0.260864 14.2582 0.611442 14.6087 1.04349 14.6087H1.82611V16.3182C0.917161 16.6423 0.260911 17.5029 0.260911 18.5218C0.260911 19.5406 0.917161 20.4013 1.82611 20.7254V22.4348H1.04349C0.611442 22.4348 0.260864 22.7854 0.260864 23.2174C0.260864 23.6495 0.611442 24 1.04349 24H22.9565C23.3886 24 23.7391 23.6495 23.7391 23.2174C23.7391 22.7854 23.3886 22.4348 22.9565 22.4348H22.1739V20.7254C23.0829 20.4013 23.7391 19.5407 23.7391 18.5217ZM8.08697 16.3181C7.17802 16.6422 6.52177 17.5028 6.52177 18.5217C6.52177 19.5406 7.17802 20.4012 8.08697 20.7253V22.4348H6.52172V21.6521C6.52172 21.2201 6.17115 20.8695 5.7391 20.8695C5.30705 20.8695 4.95647 21.2201 4.95647 21.6521V22.4348H3.39132V20.7253C4.30027 20.4012 4.95652 19.5406 4.95652 18.5217C4.95652 17.5028 4.30027 16.6422 3.39132 16.3181V14.6087C3.95771 14.6087 4.39013 14.6087 4.95652 14.6087V15.3913C4.95652 15.8234 5.3071 16.1739 5.73915 16.1739C6.17119 16.1739 6.52177 15.8234 6.52177 15.3913V14.6087C7.08816 14.6087 7.52058 14.6087 8.08697 14.6087V16.3181ZM8.08697 13.0435H6.52172V3.91303C6.52172 3.48098 6.8723 3.13041 7.30435 3.13041H16.6957C17.1277 3.13041 17.4783 3.48098 17.4783 3.91303V13.0435H15.9131V9.39131H12.7826V13.0435H11.2174V9.39131H8.08697V13.0435ZM14.3478 16.3181C13.4389 16.6422 12.7826 17.5028 12.7826 18.5217C12.7826 19.5406 13.4389 20.4012 14.3478 20.7253V22.4348H12.7826V21.6521C12.7826 21.2201 12.4321 20.8695 12 20.8695C11.568 20.8695 11.2174 21.2201 11.2174 21.6521V22.4348H9.65218V20.7253C10.5611 20.4012 11.2174 19.5406 11.2174 18.5217C11.2174 17.5028 10.5611 16.6422 9.65218 16.3181V14.6087H14.3478V16.3181ZM20.6087 16.3181C19.6997 16.6422 19.0435 17.5028 19.0435 18.5217C19.0435 19.5406 19.6997 20.4012 20.6087 20.7253V22.4348H19.0435V21.6521C19.0435 21.2201 18.6929 20.8695 18.2609 20.8695C17.8288 20.8695 17.4782 21.2201 17.4782 21.6521V22.4348H15.913V20.7253C16.822 20.4012 17.4782 19.5406 17.4782 18.5217C17.4782 17.5028 16.822 16.6422 15.913 16.3181V14.6087C16.4794 14.6087 16.9118 14.6087 17.4782 14.6087V15.3913C17.4782 15.8234 17.8288 16.1739 18.2609 16.1739C18.6929 16.1739 19.0435 15.8234 19.0435 15.3913V14.6087C19.6099 14.6087 20.0423 14.6087 20.6087 14.6087V16.3181Z" fill="#D266F9"/>
<path d="M11.2174 4.69568H8.08697V7.82614H11.2174V4.69568Z" fill="#D266F9"/>
<path d="M15.9131 4.69568H12.7826V7.82614H15.9131V4.69568Z" fill="#D266F9"/>
</g>
<defs>
<clipPath id="clip0">
<rect width="24" height="24" fill="white"/>
</clipPath>
</defs>
</svg>
