<svg width="24" height="24" viewBox="0 0 24 24" fill="none" xmlns="http://www.w3.org/2000/svg">
<path d="M17.1355 11.6511C18.2379 10.4913 18.9091 8.95631 18.9091 7.27275C18.9091 6.43341 18.7421 5.63109 18.4383 4.8937C19.3556 4.50895 20 3.60248 20 2.5455C20 1.13962 18.8603 0 17.4545 0C16.4413 0 15.5664 0.592078 15.1567 1.44909C14.2105 0.987797 13.1374 0.727266 12 0.727266C10.8626 0.727266 9.78937 0.987797 8.8431 1.44909C8.43341 0.592078 7.55859 0 6.54543 0C5.1396 0 3.99998 1.13962 3.99998 2.54545C3.99998 3.60248 4.64432 4.50895 5.56171 4.89366C5.25777 5.63105 5.0909 6.43336 5.0909 7.2727C5.0909 8.95627 5.7621 10.4912 6.86451 11.651C4.93162 13.4797 1.82821 16.4214 2.56377 19.3635C2.90385 20.7239 3.79124 21.2625 4.73048 21.3113C4.79718 19.5704 6.07237 18.1818 7.63635 18.1818C9.24299 18.1818 10.5455 19.647 10.5455 21.4545C10.5455 22.4828 10.1235 23.4 9.46415 24C10.5991 24 11.8669 24 12 24C12.2796 24 13.4691 24 14.5358 24C13.8764 23.4 13.4545 22.4828 13.4545 21.4545C13.4545 19.647 14.7569 18.1818 16.3636 18.1818C17.9276 18.1818 19.2028 19.5703 19.2695 21.3112C20.2087 21.2624 21.0961 20.7238 21.4363 19.3635C22.1717 16.4214 19.0684 13.4798 17.1355 11.6511ZM6.27881 3.60211C5.80541 3.48305 5.45451 3.05578 5.45451 2.54545C5.45451 1.94297 5.94295 1.45453 6.54543 1.45453C7.03945 1.45453 7.45626 1.78317 7.59051 2.23359C7.08834 2.62842 6.64616 3.08925 6.27881 3.60211ZM14.9091 6.72726C15.2104 6.72726 15.4545 6.97148 15.4545 7.2727C15.4545 7.57392 15.2104 7.81814 14.9091 7.81814C14.6077 7.81814 14.3636 7.57392 14.3636 7.2727C14.3636 6.97148 14.6077 6.72726 14.9091 6.72726ZM9.09088 6.72726C9.3922 6.72726 9.63632 6.97148 9.63632 7.2727C9.63632 7.57392 9.3922 7.81814 9.09088 7.81814C8.78957 7.81814 8.54545 7.57392 8.54545 7.2727C8.54545 6.97148 8.78957 6.72726 9.09088 6.72726ZM12 13.8182C9.59001 13.8182 7.63635 12.5158 7.63635 10.9091C7.63635 9.30239 9.59001 7.99997 12 7.99997C14.41 7.99997 16.3636 9.30239 16.3636 10.9091C16.3636 12.5158 14.4099 13.8182 12 13.8182ZM16.4094 2.23369C16.5436 1.78322 16.9605 1.45458 17.4545 1.45458C18.057 1.45458 18.5454 1.94302 18.5454 2.5455C18.5454 3.05583 18.1945 3.48309 17.7211 3.60225C17.3538 3.0893 16.9116 2.62842 16.4094 2.23369Z" fill="#D266F9"/>
<path d="M7.59052 22.9091C8.29344 22.9091 8.86327 22.3393 8.86327 21.6363C8.86327 20.9334 8.29344 20.3636 7.59052 20.3636C6.8876 20.3636 6.31777 20.9334 6.31777 21.6363C6.31777 22.3393 6.8876 22.9091 7.59052 22.9091Z" fill="#D266F9"/>
<path d="M16.4087 22.9091C17.1116 22.9091 17.6814 22.3393 17.6814 21.6363C17.6814 20.9334 17.1116 20.3636 16.4087 20.3636C15.7058 20.3636 15.1359 20.9334 15.1359 21.6363C15.1359 22.3393 15.7058 22.9091 16.4087 22.9091Z" fill="#D266F9"/>
<path d="M12 9.45453C11.1967 9.45453 10.5455 9.53919 10.5455 10.1818C10.5455 10.8244 11.1967 11.6363 12 11.6363C12.8034 11.6363 13.4545 10.8244 13.4545 10.1818C13.4545 9.53919 12.8034 9.45453 12 9.45453Z" fill="#D266F9"/>
</svg>
