<svg width="24" height="24" viewBox="0 0 24 24" fill="none" xmlns="http://www.w3.org/2000/svg">
<path d="M2.7323 8.9766C2.7323 7.72403 3.75134 6.70494 5.00396 6.70494H10.1033C10.8951 6.70494 11.5933 7.11246 12 7.72846C12.4068 7.11241 13.1049 6.70494 13.8967 6.70494H18.9961C20.2486 6.70494 21.2677 7.72403 21.2677 8.9766V9.08122H21.8364V6.86601C21.8364 5.49138 20.718 4.37305 19.3434 4.37305H4.65653C3.2819 4.37305 2.16356 5.49138 2.16356 6.86601V9.08122H2.73225V8.9766H2.7323Z" fill="#D266F9"/>
<path d="M23.0452 10.142H0.954734C0.428291 10.142 0 10.5703 0 11.0967V16.6391C0 17.1656 0.428291 17.5939 0.954734 17.5939H1.35216L0.882574 18.9192C0.78472 19.1953 0.929289 19.4985 1.20536 19.5963C1.26395 19.617 1.32374 19.6269 1.38253 19.6269C1.60085 19.6269 1.8054 19.491 1.88248 19.2734L2.47761 17.5938H21.5224L22.1175 19.2734C22.1946 19.491 22.3991 19.6269 22.6175 19.6269C22.6763 19.6269 22.7361 19.617 22.7946 19.5963C23.0708 19.4984 23.2153 19.1953 23.1174 18.9192L22.6478 17.5939H23.0453C23.5717 17.5939 24 17.1656 24 16.6391V11.0967C24 10.5703 23.5717 10.142 23.0452 10.142Z" fill="#D266F9"/>
<path d="M13.8967 7.76581C13.2291 7.76581 12.6859 8.30895 12.6859 8.97658V9.08119H20.2069V8.97658C20.2069 8.30895 19.6637 7.76581 18.9961 7.76581H13.8967Z" fill="#D266F9"/>
<path d="M5.00397 7.76581C4.33629 7.76581 3.79315 8.309 3.79315 8.97663V9.08119H11.3141V8.97658C11.3141 8.30895 10.771 7.76581 10.1033 7.76581H5.00397V7.76581Z" fill="#D266F9"/>
</svg>
