<svg width="24" height="24" viewBox="0 0 24 24" fill="none" xmlns="http://www.w3.org/2000/svg">
<path d="M20.6889 22.879C20.6889 22.879 20.6889 16.121 20.6867 15.4487C20.6889 14.8351 20.6693 0.107089 20.6693 0.107089L20.3339 0.105652C20.3339 0.105652 17.5916 1.65288 17.5924 13.1261C19.6986 13.7048 18.8121 16.0064 18.6524 16.2982C18.6524 16.8827 18.6974 22.8819 18.6974 22.8819L18.7039 22.8805C18.7017 22.887 18.6996 22.8922 18.7003 22.9C18.6974 23.4511 19.1446 23.8984 19.6935 23.894C20.241 23.8954 20.6896 23.4475 20.6874 22.9C20.6896 22.895 20.6896 22.887 20.686 22.8833L20.6889 22.879Z" fill="#D266F9"/>
<path d="M15.8266 0.529958L15.2305 0.529271L15.407 6.77143L14.691 6.76999V0.528521L14.1683 0.529958V6.81024H13.5744V0.529271L12.9979 0.529958L12.9965 6.81024H12.2944L12.4952 0.527771H11.9518L11.2907 5.84128C11.2907 5.84128 11.2744 6.04131 11.2744 6.11717C11.2744 6.93653 11.6544 7.66946 12.2483 8.14613C14.2061 10.3558 12.8698 12.6099 12.8698 13.1456C12.8713 13.7381 12.8713 22.8622 12.8713 22.8622H12.8727C12.8727 22.8694 12.8705 22.8746 12.8698 22.8832C12.8705 23.4423 13.324 23.8939 13.8822 23.8954C14.4413 23.8954 14.8958 23.4409 14.8958 22.8839C14.8951 22.8746 14.8921 22.8687 14.8921 22.8644H14.8936C14.8936 22.8644 14.895 13.8528 14.895 13.1644C14.8936 12.5437 13.7645 9.95025 15.6522 8.02409C15.6537 8.02121 15.6581 8.01609 15.661 8.01209C16.1213 7.57579 16.4248 6.97421 16.4712 6.29864C16.4742 6.25108 16.4727 6.13129 16.4727 6.13129L15.8266 0.529958Z" fill="#D266F9"/>
<path d="M6.79573 0.00143725V0C6.78523 0 6.74886 0 6.73837 0C6.73837 0 6.73837 0.000749869 6.73837 0.00143725C4.54612 0.037056 3.31108 2.136 3.31108 4.4176C3.31033 6.71808 4.69378 8.3596 5.89976 8.72448C6.56083 9.65019 6.12522 11.8388 5.65837 13.1007C5.65837 13.7047 5.65837 22.9538 5.65837 22.9538H5.66055C5.6598 22.9603 5.65837 22.9676 5.65837 22.9749C5.65837 23.5405 6.11685 24 6.68356 24C6.71262 24 6.82185 24 6.85091 24C7.41719 24 7.87611 23.5405 7.87611 22.9749C7.87611 22.9676 7.87536 22.9604 7.87392 22.9538H7.87611C7.87611 22.9538 7.87611 13.7047 7.87611 13.1007C7.40925 11.8388 6.97401 9.65019 7.63434 8.72448C8.841 8.35967 10.223 6.71808 10.2238 4.4176C10.2237 2.136 8.98835 0.037056 6.79573 0.00143725ZM5.65149 7.83326C5.51464 7.72765 5.33998 7.55881 5.15701 7.33666C4.97117 7.11488 4.77877 6.84006 4.59724 6.52386C4.50938 6.36483 4.42626 6.19529 4.3489 6.01601C4.27523 5.82867 4.21424 5.64826 4.17287 5.4348C4.09701 5.02425 4.10969 4.63182 4.15256 4.27063C4.19287 3.90976 4.26948 3.5805 4.35478 3.30642C4.43826 3.03053 4.53412 2.8087 4.61361 2.65735C4.69091 2.50344 4.75408 2.43045 4.75408 2.43045C4.75408 2.43045 4.74065 2.52843 4.73415 2.69078C4.72903 2.85344 4.72071 3.08684 4.71234 3.3656C4.70584 3.91519 4.66041 4.66231 4.76314 5.32626C4.78239 5.48161 4.83751 5.6577 4.89093 5.81561C4.94068 5.98046 5.00092 6.14343 5.06553 6.29953C5.18901 6.6146 5.32217 6.90686 5.43659 7.15875C5.5527 7.40852 5.65586 7.61761 5.73641 7.75808C5.81303 7.90218 5.8827 7.96392 5.88776 7.95811C5.88926 7.96542 5.78547 7.94255 5.65149 7.83326Z" fill="#D266F9"/>
</svg>
