<svg width="17" height="17" viewBox="0 0 17 17" fill="none" xmlns="http://www.w3.org/2000/svg">
<g clip-path="url(#clip0)">
<path d="M11.7463 8.91315C11.7132 8.96272 11.7132 9.01228 11.6967 9.07836C11.6802 9.29314 11.8454 9.49139 12.0602 9.50791C12.275 9.52443 12.4732 9.35922 12.4897 9.14445C12.4897 9.09489 12.4897 9.04532 12.5062 8.96272C12.5062 8.88011 12.5062 8.83055 12.5062 8.78099C12.5062 8.30187 12.4236 7.83928 12.275 7.39322C12.0767 6.81498 11.7298 6.30282 11.3167 5.87328C10.8046 5.36112 10.1768 4.99766 9.46637 4.79941C9.13595 4.7168 8.77248 4.66724 8.42554 4.66724C8.30989 4.66724 8.19424 4.66724 8.06208 4.68376C7.94643 4.70028 7.83078 4.7168 7.71513 4.73332C7.50036 4.76636 7.35167 4.98114 7.40123 5.17939C7.43427 5.39416 7.64905 5.54285 7.8473 5.49329C7.94643 5.47677 8.02903 5.46025 8.12816 5.46025C8.14468 5.46025 8.1612 5.46025 8.17772 5.46025C8.26033 5.46025 8.34293 5.44373 8.42554 5.44373C9.3342 5.44373 10.1768 5.80719 10.7715 6.41847C11.3663 7.01323 11.7298 7.82276 11.7463 8.73142V8.76446C11.7463 8.83055 11.7463 8.88011 11.7463 8.91315Z" fill="white"/>
<path d="M13.9271 9.27665C13.9106 9.49143 14.0758 9.68968 14.2905 9.7062C14.5053 9.72272 14.7036 9.55751 14.7201 9.34274C14.7366 9.16101 14.7366 8.97928 14.7366 8.79754C14.7366 8.43408 14.7036 8.08714 14.654 7.74019C14.4392 6.41851 13.7949 5.22899 12.8863 4.32033C11.8454 3.2795 10.4577 2.60214 8.92119 2.48649C8.75598 2.46997 8.57425 2.46997 8.40904 2.46997C8.22731 2.46997 8.04558 2.46997 7.86384 2.48649C7.68211 2.50301 7.50038 2.51953 7.31865 2.55258C7.10387 2.58562 6.95518 2.80039 7.00475 2.99865C7.03779 3.21342 7.25256 3.36211 7.45082 3.31255C7.56646 3.29602 7.66559 3.2795 7.78124 3.26298C7.8308 3.26298 7.88036 3.24646 7.92993 3.24646C8.09514 3.22994 8.26035 3.22994 8.40904 3.22994C8.97076 3.22994 9.49943 3.31255 10.0116 3.46124C10.9037 3.72557 11.6967 4.20468 12.3411 4.84901C12.8697 5.37768 13.2993 6.022 13.5801 6.71589C13.828 7.34369 13.9766 8.03757 13.9766 8.7645C13.9766 8.81406 13.9766 8.88015 13.9766 8.92971C13.9436 9.06188 13.9271 9.16101 13.9271 9.27665Z" fill="white"/>
<path d="M14.4888 2.73427C12.9193 1.16477 10.7716 0.206543 8.39252 0.206543C8.14471 0.206543 7.89689 0.223064 7.64907 0.239585C7.40126 0.256106 7.15344 0.289149 6.90562 0.338712C6.69085 0.371754 6.54216 0.586529 6.59172 0.784782C6.62476 0.999556 6.83954 1.14825 7.03779 1.09868C7.15344 1.08216 7.25257 1.06564 7.36821 1.04912C7.48386 1.0326 7.59951 1.01608 7.71516 1.01608C7.94645 0.999556 8.16123 0.983035 8.39252 0.983035C10.5403 0.983035 12.4898 1.85865 13.9106 3.26295C15.3149 4.66724 16.1905 6.61673 16.1905 8.781C16.1905 8.89665 16.1905 9.02882 16.1905 9.14446C16.1905 9.24359 16.174 9.34272 16.174 9.45837C16.1574 9.67314 16.3226 9.87139 16.5374 9.88791C16.7522 9.90444 16.9505 9.73922 16.967 9.52445C16.9835 9.27663 17 9.02882 17 8.79752C17 6.435 16.0418 4.28726 14.4888 2.73427Z" fill="white"/>
<path d="M16.3887 12.746L13.4645 11.1765C12.4898 10.6478 12.4567 10.9948 11.4324 12.0852C11.1846 12.3495 10.722 13.0434 10.1768 12.9112C9.03685 12.6304 6.90562 10.9617 6.21174 10.2018C5.88132 9.83829 4.4605 8.10357 4.44398 7.54186C4.41094 6.68276 6.29434 6.25321 5.68306 4.61762L4.3779 1.69339C3.15533 -1.1152 -0.264535 3.37854 0.0163242 5.47672C0.743253 10.6478 9.81334 19.0075 14.8688 16.2485C15.9922 15.6207 17.5122 13.4234 16.3887 12.746Z" fill="white"/>
</g>
<defs>
<clipPath id="clip0">
<rect width="17" height="17" fill="white"/>
</clipPath>
</defs>
</svg>
