<svg width="35" height="35" viewBox="0 0 35 35" fill="none" xmlns="http://www.w3.org/2000/svg">
<path d="M17.8486 0H17.1514C7.6763 0 0 7.6763 0 17.1514V17.8486C0 27.3237 7.6763 35 17.1514 35H17.8486C27.3237 35 35 27.3237 35 17.8486V17.1514C35 7.6763 27.3237 0 17.8486 0ZM17.5 34.0936C8.22012 34.0936 0.906375 26.7799 0.906375 17.5C0.906375 8.22012 8.22012 0.906375 17.5 0.906375C26.7799 0.906375 34.0936 8.22012 34.0936 17.5C34.0936 26.7799 26.7799 34.0936 17.5 34.0936Z" fill="#3D3D3D"/>
<path d="M18.8805 24.2141C18.6852 24.2141 18.5318 24.3675 18.5318 24.5627V25.8177C18.5318 26.0129 18.6852 26.1663 18.8805 26.1663C19.0757 26.1663 19.2291 26.0129 19.2988 25.8177V24.5627C19.2291 24.3675 19.0757 24.2141 18.8805 24.2141Z" fill="#3D3D3D"/>
<path d="M10.019 19.0548H13.6793V30.6006C13.6793 30.7958 13.8327 30.9492 14.0279 30.9492H18.8805C19.0757 30.9492 19.2291 30.7958 19.2291 30.6006V28.3277C19.2291 28.1325 19.0757 27.9791 18.8805 27.9791C18.6853 27.9791 18.5319 28.1325 18.5319 28.3277V30.252H14.3765V18.7062C14.3765 18.511 14.2231 18.3576 14.0279 18.3576H10.3676V14.2022H14.0279C14.2231 14.2022 14.3765 14.0488 14.3765 13.8536V9.7749C14.3765 7.00697 16.6285 4.75498 19.3964 4.75498H23.2381V8.42231H20.5887C19.4592 8.42231 18.5319 9.34263 18.5319 10.4791V13.8536C18.5319 14.0488 18.6853 14.2022 18.8805 14.2022H23.1126L22.5618 18.3576H18.8805C18.6853 18.3576 18.5319 18.511 18.5319 18.7062V22.1225C18.5319 22.3177 18.6853 22.4711 18.8805 22.4711C19.0757 22.4711 19.2291 22.3177 19.2291 22.1225V19.0548H22.8686C23.0429 19.0548 23.1893 18.9223 23.2172 18.755L23.8586 13.9024C23.8725 13.8048 23.8447 13.7002 23.7749 13.6305C23.7122 13.5538 23.6146 13.512 23.51 13.512H19.2291V10.4861C19.2291 9.74004 19.8357 9.12649 20.5887 9.12649H23.5867C23.7819 9.12649 23.9353 8.97311 23.9353 8.77789V4.40638C23.9353 4.21116 23.7819 4.05777 23.5867 4.05777H19.3964C16.2451 4.05777 13.6793 6.62351 13.6793 9.7749V13.505H10.019C9.82374 13.505 9.67035 13.6584 9.67035 13.8536V18.7062C9.67035 18.8944 9.82374 19.0548 10.019 19.0548Z" fill="#3D3D3D"/>
</svg>
