<?xml version="1.0" encoding="utf-8"?><svg width="24" height="24" fill="none" xmlns="http://www.w3.org/2000/svg" viewBox="0 0 24 24"><path d="M17.136 11.651c1.102-1.16 1.773-2.695 1.773-4.378 0-.84-.167-1.642-.47-2.38a2.546 2.546 0 1 0-3.282-3.444A7.19 7.19 0 0 0 12 .727a7.19 7.19 0 0 0-3.157.722 2.546 2.546 0 1 0-3.281 3.445 6.225 6.225 0 0 0-.471 2.379c0 1.683.671 3.218 1.774 4.378-1.933 1.829-5.037 4.77-4.301 7.712.34 1.36 1.227 1.9 2.166 1.948.067-1.74 1.342-3.13 2.906-3.13 1.607 0 2.91 1.466 2.91 3.273 0 1.029-.422 1.946-1.082 2.546h5.072c-.66-.6-1.082-1.517-1.082-2.546 0-1.807 1.303-3.272 2.91-3.272 1.564 0 2.839 1.388 2.905 3.13.94-.05 1.827-.588 2.167-1.949.736-2.942-2.368-5.883-4.3-7.712zM6.279 3.602A1.09 1.09 0 1 1 7.59 2.234a6.725 6.725 0 0 0-1.312 1.368zm8.63 3.125a.545.545 0 1 1 0 1.091.545.545 0 0 1 0-1.09zm-5.818 0a.545.545 0 1 1 0 1.091.545.545 0 0 1 0-1.09zM12 13.818c-2.41 0-4.364-1.302-4.364-2.909C7.636 9.302 9.59 8 12 8s4.364 1.302 4.364 2.91c0 1.606-1.954 2.908-4.364 2.908zm4.41-11.584a1.091 1.091 0 1 1 1.311 1.368 6.718 6.718 0 0 0-1.312-1.368z" fill="#D266F9"/><path d="M7.59 22.91a1.273 1.273 0 1 0 0-2.546 1.273 1.273 0 0 0 0 2.545zM16.409 22.91a1.273 1.273 0 1 0 0-2.546 1.273 1.273 0 0 0 0 2.545zM12 9.455c-.803 0-1.454.084-1.454.727 0 .642.65 1.454 1.454 1.454.803 0 1.454-.812 1.454-1.454 0-.643-.65-.727-1.454-.727z" fill="#D266F9"/></svg>