<?xml version="1.0" encoding="utf-8"?><svg width="24" height="24" fill="none" xmlns="http://www.w3.org/2000/svg" viewBox="0 0 24 24"><path d="M2.732 8.977a2.274 2.274 0 0 1 2.272-2.272h5.1c.791 0 1.49.407 1.896 1.023a2.271 2.271 0 0 1 1.897-1.023h5.1a2.274 2.274 0 0 1 2.27 2.272v.104h.57V6.866a2.496 2.496 0 0 0-2.494-2.493H4.657a2.496 2.496 0 0 0-2.493 2.493v2.215h.568v-.104zM23.045 10.142H.955a.956.956 0 0 0-.955.955v5.542c0 .527.428.955.955.955h.397l-.47 1.325a.53.53 0 1 0 1 .354l.596-1.68h19.044l.596 1.68a.53.53 0 1 0 1-.354l-.47-1.325h.397a.956.956 0 0 0 .955-.955v-5.542a.956.956 0 0 0-.955-.955z" fill="#D266F9"/><path d="M13.897 7.766c-.668 0-1.211.543-1.211 1.21v.105h7.52v-.104c0-.668-.542-1.211-1.21-1.211h-5.1zM5.004 7.766c-.668 0-1.21.543-1.21 1.21v.105h7.52v-.104c0-.668-.543-1.211-1.21-1.211h-5.1z" fill="#D266F9"/></svg>