<?xml version="1.0" encoding="utf-8"?><svg width="24" height="24" fill="none" xmlns="http://www.w3.org/2000/svg" viewBox="0 0 24 24"><path d="M20.689 22.879s0-6.758-.002-7.43c.002-.614-.018-15.342-.018-15.342l-.335-.001s-2.742 1.547-2.742 13.02c2.107.579 1.22 2.88 1.06 3.172 0 .585.045 6.584.045 6.584l.007-.002c-.002.007-.004.012-.004.02a.987.987 0 0 0 .994.994.993.993 0 0 0 .992-1.01l.003-.005zM15.827.53h-.597l.177 6.241-.716-.001V.529l-.523.001v6.28h-.594V.53h-.576l-.002 6.28h-.702l.201-6.282h-.543L11.29 5.84s-.017.2-.017.276c0 .82.38 1.552.974 2.03 1.958 2.209.622 4.463.622 4.999l.001 9.716h.002l-.003.021a1.014 1.014 0 0 0 2.026 0c0-.008-.004-.014-.004-.019h.002l.001-9.7c-.001-.62-1.13-3.214.757-5.14l.009-.012c.46-.436.764-1.038.81-1.713.003-.048.002-.168.002-.168L15.827.53zM6.796.001V0h-.058v.001C4.546.037 3.311 2.136 3.311 4.418c0 2.3 1.383 3.942 2.589 4.306.66.926.225 3.115-.242 4.377v9.853h.003l-.003.02c0 .567.459 1.026 1.026 1.026h.167a1.025 1.025 0 0 0 1.023-1.046h.002V13.1c-.467-1.262-.902-3.45-.242-4.377 1.207-.364 2.589-2.006 2.59-4.306 0-2.282-1.236-4.38-3.428-4.417zM5.65 7.833a3.263 3.263 0 0 1-.494-.496 5.678 5.678 0 0 1-.56-.813 5.814 5.814 0 0 1-.248-.508 3.2 3.2 0 0 1-.176-.581 3.852 3.852 0 0 1-.02-1.164c.04-.361.116-.69.202-.965.083-.275.18-.497.259-.649.077-.154.14-.227.14-.227s-.013.098-.02.26l-.022.676c-.006.55-.052 1.296.051 1.96.02.156.075.332.128.49.05.164.11.327.175.484.123.315.256.607.37.859.117.25.22.459.3.6.077.143.147.205.152.2.001.006-.103-.016-.237-.126z" fill="#D266F9"/></svg>