<?xml version="1.0" encoding="utf-8"?><svg width="17" height="17" fill="none" xmlns="http://www.w3.org/2000/svg" viewBox="0 0 17 17"><g clip-path="url(#gclip0)" fill="#D266F9"><path d="M11.746 8.913c-.033.05-.033.1-.05.165a.404.404 0 0 0 .364.43.404.404 0 0 0 .43-.363c0-.05 0-.1.016-.182V8.78c0-.479-.082-.942-.231-1.388-.198-.578-.545-1.09-.958-1.52A4.182 4.182 0 0 0 9.467 4.8a4.382 4.382 0 0 0-1.041-.132c-.116 0-.232 0-.364.017l-.347.05c-.215.032-.363.247-.314.445.033.215.248.364.446.314.1-.016.182-.033.281-.033h.05c.082 0 .165-.016.248-.016.908 0 1.75.363 2.346.975.594.594.958 1.404.974 2.313v.181z"/><path d="M13.927 9.277a.404.404 0 0 0 .364.43.404.404 0 0 0 .43-.364 7.399 7.399 0 0 0-.066-1.603 6.28 6.28 0 0 0-1.769-3.42 6.268 6.268 0 0 0-3.965-1.833c-.165-.017-.347-.017-.512-.017-.182 0-.363 0-.545.017-.182.016-.364.033-.545.066-.215.033-.364.247-.314.446.033.214.248.363.446.314l.33-.05c.05 0 .1-.016.149-.016.165-.017.33-.017.479-.017.562 0 1.09.083 1.603.231a5.492 5.492 0 0 1 2.33 1.388 5.675 5.675 0 0 1 1.238 1.867c.248.628.397 1.322.397 2.049v.165c-.033.132-.05.231-.05.347z"/><path d="M14.489 2.734A8.577 8.577 0 0 0 7.649.24c-.248.016-.496.05-.743.099-.215.033-.364.248-.314.446.033.215.248.363.446.314l.33-.05c.116-.016.232-.033.347-.033.231-.016.446-.033.678-.033 2.147 0 4.097.876 5.518 2.28a7.777 7.777 0 0 1 2.28 5.518v.364c0 .099-.017.198-.017.313a.403.403 0 0 0 .363.43.404.404 0 0 0 .43-.363c.017-.248.033-.496.033-.727 0-2.363-.958-4.51-2.511-6.064zM16.389 12.746l-2.925-1.57c-.974-.528-1.007-.181-2.032.91-.247.264-.71.957-1.255.825-1.14-.28-3.271-1.95-3.965-2.71-.33-.363-1.752-2.097-1.768-2.659-.033-.86 1.85-1.289 1.24-2.924L4.377 1.694C3.155-1.116-.265 3.379.016 5.477c.727 5.17 9.797 13.53 14.853 10.772 1.123-.628 2.643-2.825 1.52-3.503z"/></g><defs><clipPath id="gclip0"><path fill="#fff" d="M0 0h17v17H0z"/></clipPath></defs></svg>