<?xml version="1.0" encoding="utf-8"?><svg viewBox="0 0 24 24" xmlns="http://www.w3.org/2000/svg" xmlns:xlink="http://www.w3.org/1999/xlink"><style>:root>svg{display:none}:root>svg:target{display:block}</style><svg fill="none" viewBox="0 0 24 24" id="balcony" xmlns="http://www.w3.org/2000/svg"><g clip-path="url(#aclip0)" fill="#D266F9"><path d="M23.74 18.522c0-1.02-.657-1.88-1.566-2.204v-1.71h.783a.783.783 0 0 0 0-1.565h-2.348V2.348A2.35 2.35 0 0 0 18.26 0H5.739a2.35 2.35 0 0 0-2.348 2.348v10.695H1.043a.783.783 0 0 0 0 1.566h.783v1.71a2.344 2.344 0 0 0-1.565 2.203c0 1.019.656 1.88 1.565 2.203v1.71h-.783a.783.783 0 0 0 0 1.565h21.913a.783.783 0 0 0 0-1.565h-.782v-1.71a2.344 2.344 0 0 0 1.565-2.203zM8.086 16.318a2.344 2.344 0 0 0-1.565 2.204c0 1.019.656 1.88 1.565 2.203v1.71H6.522v-.783a.783.783 0 0 0-1.566 0v.783H3.391v-1.71a2.344 2.344 0 0 0 1.566-2.203c0-1.02-.657-1.88-1.566-2.204v-1.71h1.566v.783a.783.783 0 0 0 1.565 0v-.782h1.565v1.71zm0-3.275H6.522v-9.13c0-.432.35-.783.782-.783h9.392c.432 0 .782.351.782.783v9.13h-1.565V9.391h-3.13v3.652h-1.566V9.392h-3.13v3.652zm6.26 3.275a2.344 2.344 0 0 0-1.564 2.204c0 1.019.656 1.88 1.565 2.203v1.71h-1.565v-.783a.783.783 0 0 0-1.566 0v.783H9.652v-1.71a2.344 2.344 0 0 0 1.565-2.203c0-1.02-.656-1.88-1.565-2.204v-1.71h4.696v1.71zm6.262 0a2.344 2.344 0 0 0-1.566 2.204c0 1.019.657 1.88 1.566 2.203v1.71h-1.566v-.783a.783.783 0 0 0-1.565 0v.783h-1.565v-1.71a2.344 2.344 0 0 0 1.565-2.203c0-1.02-.656-1.88-1.565-2.204v-1.71h1.565v.783a.783.783 0 0 0 1.566 0v-.782h1.565v1.71z"/><path d="M11.217 4.696h-3.13v3.13h3.13v-3.13zM15.913 4.696h-3.13v3.13h3.13v-3.13z"/></g><defs><clipPath id="aclip0"><path fill="#fff" d="M0 0h24v24H0z"/></clipPath></defs></svg><svg fill="none" viewBox="0 0 24 24" id="bathtub" xmlns="http://www.w3.org/2000/svg"><path d="M24 11.297h-3.259a9.043 9.043 0 0 0-5.033 1.524 7.641 7.641 0 0 1-4.253 1.288h-7.19v-1.406h1.407v-1.406H4.266V4.969c0-1.163.946-2.11 2.109-2.11s2.11.947 2.11 2.11v.824A2.113 2.113 0 0 0 7.077 7.78v.703H5.672v1.407h7.031V8.484h-1.406v-.703c0-.916-.588-1.698-1.406-1.988v-.824a3.52 3.52 0 0 0-3.516-3.516A3.52 3.52 0 0 0 2.859 4.97v6.328H1.453v1.406H2.86v1.406H0v1.407h1.453v2.109a3.522 3.522 0 0 0 2.813 3.445v1.477h1.406V21.14h12.656v1.406h1.406V21.07a3.522 3.522 0 0 0 2.813-3.445v-4.922H24v-1.406z" fill="#D266F9"/></svg><svg fill="none" viewBox="0 0 24 24" id="bear" xmlns="http://www.w3.org/2000/svg"><path d="M17.136 11.651c1.102-1.16 1.773-2.695 1.773-4.378 0-.84-.167-1.642-.47-2.38a2.546 2.546 0 1 0-3.282-3.444A7.19 7.19 0 0 0 12 .727a7.19 7.19 0 0 0-3.157.722 2.546 2.546 0 1 0-3.281 3.445 6.225 6.225 0 0 0-.471 2.379c0 1.683.671 3.218 1.774 4.378-1.933 1.829-5.037 4.77-4.301 7.712.34 1.36 1.227 1.9 2.166 1.948.067-1.74 1.342-3.13 2.906-3.13 1.607 0 2.91 1.466 2.91 3.273 0 1.029-.422 1.946-1.082 2.546h5.072c-.66-.6-1.082-1.517-1.082-2.546 0-1.807 1.303-3.272 2.91-3.272 1.564 0 2.839 1.388 2.905 3.13.94-.05 1.827-.588 2.167-1.949.736-2.942-2.368-5.883-4.3-7.712zM6.279 3.602A1.09 1.09 0 1 1 7.59 2.234a6.725 6.725 0 0 0-1.312 1.368zm8.63 3.125a.545.545 0 1 1 0 1.091.545.545 0 0 1 0-1.09zm-5.818 0a.545.545 0 1 1 0 1.091.545.545 0 0 1 0-1.09zM12 13.818c-2.41 0-4.364-1.302-4.364-2.909C7.636 9.302 9.59 8 12 8s4.364 1.302 4.364 2.91c0 1.606-1.954 2.908-4.364 2.908zm4.41-11.584a1.091 1.091 0 1 1 1.311 1.368 6.718 6.718 0 0 0-1.312-1.368z" fill="#D266F9"/><path d="M7.59 22.91a1.273 1.273 0 1 0 0-2.546 1.273 1.273 0 0 0 0 2.545zM16.409 22.91a1.273 1.273 0 1 0 0-2.546 1.273 1.273 0 0 0 0 2.545zM12 9.455c-.803 0-1.454.084-1.454.727 0 .642.65 1.454 1.454 1.454.803 0 1.454-.812 1.454-1.454 0-.643-.65-.727-1.454-.727z" fill="#D266F9"/></svg><svg fill="none" viewBox="0 0 24 24" id="bed" xmlns="http://www.w3.org/2000/svg"><path d="M2.732 8.977a2.274 2.274 0 0 1 2.272-2.272h5.1c.791 0 1.49.407 1.896 1.023a2.271 2.271 0 0 1 1.897-1.023h5.1a2.274 2.274 0 0 1 2.27 2.272v.104h.57V6.866a2.496 2.496 0 0 0-2.494-2.493H4.657a2.496 2.496 0 0 0-2.493 2.493v2.215h.568v-.104zM23.045 10.142H.955a.956.956 0 0 0-.955.955v5.542c0 .527.428.955.955.955h.397l-.47 1.325a.53.53 0 1 0 1 .354l.596-1.68h19.044l.596 1.68a.53.53 0 1 0 1-.354l-.47-1.325h.397a.956.956 0 0 0 .955-.955v-5.542a.956.956 0 0 0-.955-.955z" fill="#D266F9"/><path d="M13.897 7.766c-.668 0-1.211.543-1.211 1.21v.105h7.52v-.104c0-.668-.542-1.211-1.21-1.211h-5.1zM5.004 7.766c-.668 0-1.21.543-1.21 1.21v.105h7.52v-.104c0-.668-.543-1.211-1.21-1.211h-5.1z" fill="#D266F9"/></svg><svg fill="none" viewBox="0 0 24 24" id="ieces" xmlns="http://www.w3.org/2000/svg"><path d="M20.689 22.879s0-6.758-.002-7.43c.002-.614-.018-15.342-.018-15.342l-.335-.001s-2.742 1.547-2.742 13.02c2.107.579 1.22 2.88 1.06 3.172 0 .585.045 6.584.045 6.584l.007-.002c-.002.007-.004.012-.004.02a.987.987 0 0 0 .994.994.993.993 0 0 0 .992-1.01l.003-.005zM15.827.53h-.597l.177 6.241-.716-.001V.529l-.523.001v6.28h-.594V.53h-.576l-.002 6.28h-.702l.201-6.282h-.543L11.29 5.84s-.017.2-.017.276c0 .82.38 1.552.974 2.03 1.958 2.209.622 4.463.622 4.999l.001 9.716h.002l-.003.021a1.014 1.014 0 0 0 2.026 0c0-.008-.004-.014-.004-.019h.002l.001-9.7c-.001-.62-1.13-3.214.757-5.14l.009-.012c.46-.436.764-1.038.81-1.713.003-.048.002-.168.002-.168L15.827.53zM6.796.001V0h-.058v.001C4.546.037 3.311 2.136 3.311 4.418c0 2.3 1.383 3.942 2.589 4.306.66.926.225 3.115-.242 4.377v9.853h.003l-.003.02c0 .567.459 1.026 1.026 1.026h.167a1.025 1.025 0 0 0 1.023-1.046h.002V13.1c-.467-1.262-.902-3.45-.242-4.377 1.207-.364 2.589-2.006 2.59-4.306 0-2.282-1.236-4.38-3.428-4.417zM5.65 7.833a3.263 3.263 0 0 1-.494-.496 5.678 5.678 0 0 1-.56-.813 5.814 5.814 0 0 1-.248-.508 3.2 3.2 0 0 1-.176-.581 3.852 3.852 0 0 1-.02-1.164c.04-.361.116-.69.202-.965.083-.275.18-.497.259-.649.077-.154.14-.227.14-.227s-.013.098-.02.26l-.022.676c-.006.55-.052 1.296.051 1.96.02.156.075.332.128.49.05.164.11.327.175.484.123.315.256.607.37.859.117.25.22.459.3.6.077.143.147.205.152.2.001.006-.103-.016-.237-.126z" fill="#D266F9"/></svg><svg fill="none" viewBox="0 0 24 23" id="living-room" xmlns="http://www.w3.org/2000/svg"><g clip-path="url(#fclip0)" fill="#D266F9"><path d="M17.623 17.394H5.483v4.218h12.142l-.002-.06v-4.158zM.702 6.832h12.814c.388 0 .702-.301.702-.673V1.616c0-.372-.314-.673-.702-.673H.702C.314.943 0 1.244 0 1.616v4.543c0 .372.314.673.702.673zM21.114 11.05v2.125h.4V7.717h1.784a.714.714 0 0 0 .552-.256.651.651 0 0 0 .13-.575l-1.073-4.251a.697.697 0 0 0-.682-.515h-2.827a.697.697 0 0 0-.682.515l-1.073 4.251c-.05.2-.003.412.13.575a.714.714 0 0 0 .552.256h1.785v1.614a2.002 2.002 0 0 1 1.004 1.72zM17.623 16.048V15.03c0-1.023.868-1.855 1.936-1.855h.152V11.05c0-.37-.315-.672-.702-.672H4.099c-.388 0-.703.301-.703.672v2.125h.152c1.067 0 1.936.832 1.936 1.855v1.018h12.14zM4.08 15.03a.522.522 0 0 0-.532-.51H1.043a.522.522 0 0 0-.532.51v6.521c0 .281.238.51.532.51h2.505a.522.522 0 0 0 .532-.51v-6.52zM22.596 21.551v-6.52a.522.522 0 0 0-.532-.51H19.56a.522.522 0 0 0-.532.51v6.52c0 .281.238.51.532.51h2.505a.522.522 0 0 0 .532-.51z"/></g><defs><clipPath id="fclip0"><path fill="#fff" d="M0 0h24v23H0z"/></clipPath></defs></svg><svg fill="none" viewBox="0 0 17 17" id="phone" xmlns="http://www.w3.org/2000/svg"><g clip-path="url(#gclip0)" fill="#D266F9"><path d="M11.746 8.913c-.033.05-.033.1-.05.165a.404.404 0 0 0 .364.43.404.404 0 0 0 .43-.363c0-.05 0-.1.016-.182V8.78c0-.479-.082-.942-.231-1.388-.198-.578-.545-1.09-.958-1.52A4.182 4.182 0 0 0 9.467 4.8a4.382 4.382 0 0 0-1.041-.132c-.116 0-.232 0-.364.017l-.347.05c-.215.032-.363.247-.314.445.033.215.248.364.446.314.1-.016.182-.033.281-.033h.05c.082 0 .165-.016.248-.016.908 0 1.75.363 2.346.975.594.594.958 1.404.974 2.313v.181z"/><path d="M13.927 9.277a.404.404 0 0 0 .364.43.404.404 0 0 0 .43-.364 7.399 7.399 0 0 0-.066-1.603 6.28 6.28 0 0 0-1.769-3.42 6.268 6.268 0 0 0-3.965-1.833c-.165-.017-.347-.017-.512-.017-.182 0-.363 0-.545.017-.182.016-.364.033-.545.066-.215.033-.364.247-.314.446.033.214.248.363.446.314l.33-.05c.05 0 .1-.016.149-.016.165-.017.33-.017.479-.017.562 0 1.09.083 1.603.231a5.492 5.492 0 0 1 2.33 1.388 5.675 5.675 0 0 1 1.238 1.867c.248.628.397 1.322.397 2.049v.165c-.033.132-.05.231-.05.347z"/><path d="M14.489 2.734A8.577 8.577 0 0 0 7.649.24c-.248.016-.496.05-.743.099-.215.033-.364.248-.314.446.033.215.248.363.446.314l.33-.05c.116-.016.232-.033.347-.033.231-.016.446-.033.678-.033 2.147 0 4.097.876 5.518 2.28a7.777 7.777 0 0 1 2.28 5.518v.364c0 .099-.017.198-.017.313a.403.403 0 0 0 .363.43.404.404 0 0 0 .43-.363c.017-.248.033-.496.033-.727 0-2.363-.958-4.51-2.511-6.064zM16.389 12.746l-2.925-1.57c-.974-.528-1.007-.181-2.032.91-.247.264-.71.957-1.255.825-1.14-.28-3.271-1.95-3.965-2.71-.33-.363-1.752-2.097-1.768-2.659-.033-.86 1.85-1.289 1.24-2.924L4.377 1.694C3.155-1.116-.265 3.379.016 5.477c.727 5.17 9.797 13.53 14.853 10.772 1.123-.628 2.643-2.825 1.52-3.503z"/></g><defs><clipPath id="gclip0"><path fill="#fff" d="M0 0h17v17H0z"/></clipPath></defs></svg><svg fill="none" viewBox="0 0 17 17" id="phone-w" xmlns="http://www.w3.org/2000/svg"><g clip-path="url(#hclip0)" fill="#fff"><path d="M11.746 8.913c-.033.05-.033.1-.05.165a.404.404 0 0 0 .364.43.403.403 0 0 0 .43-.364c0-.05 0-.099.016-.181V8.78c0-.48-.082-.942-.231-1.388-.198-.578-.545-1.09-.958-1.52A4.181 4.181 0 0 0 9.467 4.8a4.382 4.382 0 0 0-1.041-.132c-.116 0-.232 0-.364.017l-.347.05c-.215.032-.363.247-.314.445.033.215.248.364.446.314.1-.016.182-.033.281-.033h.05c.082 0 .165-.016.248-.016.908 0 1.75.363 2.345.974.595.595.959 1.405.975 2.313v.183z"/><path d="M13.927 9.277a.404.404 0 0 0 .364.43.404.404 0 0 0 .43-.364 7.399 7.399 0 0 0-.066-1.603 6.28 6.28 0 0 0-1.769-3.42 6.268 6.268 0 0 0-3.965-1.834c-.165-.016-.347-.016-.512-.016-.182 0-.363 0-.545.016-.182.017-.364.034-.545.067-.215.033-.364.247-.314.446.033.214.248.363.446.314.115-.017.215-.034.33-.05.05 0 .1-.017.149-.017.165-.016.33-.016.479-.016.562 0 1.09.083 1.603.231a5.492 5.492 0 0 1 2.33 1.388 5.675 5.675 0 0 1 1.238 1.867c.248.628.397 1.322.397 2.048v.166c-.033.132-.05.231-.05.347z"/><path d="M14.489 2.734A8.577 8.577 0 0 0 8.393.207c-.248 0-.496.016-.744.033-.248.016-.496.05-.743.099-.215.033-.364.248-.314.446.033.215.248.363.446.314l.33-.05c.116-.016.232-.033.347-.033.231-.016.446-.033.678-.033 2.147 0 4.097.876 5.518 2.28a7.777 7.777 0 0 1 2.28 5.518v.363c0 .1-.017.199-.017.314a.403.403 0 0 0 .363.43.404.404 0 0 0 .43-.364c.017-.247.033-.495.033-.726 0-2.363-.958-4.51-2.511-6.064zM16.389 12.746l-2.925-1.57c-.974-.528-1.007-.181-2.032.91-.247.264-.71.957-1.255.825-1.14-.28-3.271-1.95-3.965-2.71-.33-.363-1.752-2.097-1.768-2.66-.033-.858 1.85-1.288 1.24-2.923L4.377 1.693C3.155-1.115-.265 3.38.016 5.477c.727 5.17 9.797 13.53 14.853 10.771 1.123-.627 2.643-2.825 1.52-3.502z"/></g><defs><clipPath id="hclip0"><path fill="#fff" d="M0 0h17v17H0z"/></clipPath></defs></svg></svg>