<svg width="12" height="7" viewBox="0 0 12 7" fill="none" xmlns="http://www.w3.org/2000/svg">
<path d="M11.3979 1.51786C11.3979 1.43304 11.3555 1.33761 11.2919 1.274L10.7617 0.743861C10.6981 0.680245 10.6027 0.637835 10.5179 0.637835C10.433 0.637835 10.3376 0.680245 10.274 0.743861L6.10714 4.91071L1.94029 0.743861C1.87667 0.680245 1.78125 0.637835 1.69643 0.637835C1.601 0.637835 1.51618 0.680245 1.45257 0.743861L0.922433 1.274C0.858817 1.33761 0.816406 1.43304 0.816406 1.51786C0.816406 1.60268 0.858817 1.6981 0.922433 1.76172L5.86328 6.70257C5.9269 6.76618 6.02232 6.80859 6.10714 6.80859C6.19196 6.80859 6.28739 6.76618 6.351 6.70257L11.2919 1.76172C11.3555 1.6981 11.3979 1.60268 11.3979 1.51786Z" fill="white"/>
</svg>
