<svg width="35" height="35" viewBox="0 0 35 35" fill="none" xmlns="http://www.w3.org/2000/svg">
<path d="M17.8486 0H17.1514C7.6763 0 0 7.6763 0 17.1514V17.8486C0 27.3237 7.6763 35 17.1514 35H17.8486C27.3237 35 35 27.3237 35 17.8486V17.1514C35 7.6763 27.3237 0 17.8486 0ZM17.5 34.0239C8.22012 34.0239 0.976096 26.7799 0.976096 17.5C0.976096 8.22012 8.22012 0.976096 17.5 0.976096C26.7799 0.976096 34.0239 8.22012 34.0239 17.5C34.0239 26.7799 26.7799 34.0239 17.5 34.0239Z" fill="#3D3D3D"/>
<path d="M21.6205 11.6434H27.5399C27.7351 11.6434 27.8885 11.49 27.8885 11.2948V9.4751C27.8885 9.27988 27.7351 9.1265 27.5399 9.1265C27.3446 9.1265 27.1913 9.27988 27.1913 9.4751V10.9462H21.9691V9.82371H22.6594C22.8546 9.82371 23.008 9.67032 23.008 9.4751C23.008 9.27988 22.8546 9.1265 22.6594 9.1265H21.6205C21.4253 9.1265 21.2719 9.27988 21.2719 9.4751V11.2948C21.2719 11.49 21.4323 11.6434 21.6205 11.6434Z" fill="#3D3D3D"/>
<path d="M25.0299 9.83068H26.2849C26.4801 9.83068 26.6335 9.67729 26.6335 9.48207C26.6335 9.28685 26.4801 9.13347 26.2849 9.13347H25.0299C24.8347 9.13347 24.6813 9.28685 24.6813 9.48207C24.6813 9.67729 24.8347 9.83068 25.0299 9.83068Z" fill="#3D3D3D"/>
<path d="M15.004 20.1773C15.004 19.5219 14.7948 18.9851 14.3835 18.5807C13.6235 17.8416 12.4522 17.8416 12.3546 17.8416H8.88944C8.69422 17.8416 8.54083 17.995 8.54083 18.1902V22.1574C8.54083 22.3526 8.69422 22.506 8.88944 22.506H12.3546C12.3616 22.506 12.3685 22.506 12.3755 22.506C12.5637 22.506 13.6653 22.4781 14.3835 21.7669C14.7948 21.3695 15.004 20.8327 15.004 20.1773ZM13.8954 21.2719C13.3307 21.8227 12.3755 21.8088 12.3616 21.8157H12.3546H9.23804V18.5458H12.3546H12.3616C12.3685 18.5458 13.3376 18.5388 13.8954 19.0827C14.1743 19.3546 14.3068 19.7102 14.3068 20.1773C14.3068 20.6374 14.1743 21 13.8954 21.2719Z" fill="#3D3D3D"/>
<path d="M8.88945 16.2869H12.1524C12.1594 16.2869 12.1594 16.2869 12.1663 16.2869C12.3267 16.2869 13.2679 16.259 13.8885 15.6524C14.244 15.3038 14.4253 14.8367 14.4253 14.2719C14.4253 13.7072 14.244 13.2401 13.8885 12.8914C13.2401 12.257 12.2361 12.257 12.1454 12.257H8.88248C8.68726 12.257 8.53387 12.4104 8.53387 12.6056V15.9313C8.54085 16.1335 8.70121 16.2869 8.88945 16.2869ZM9.23806 12.9612H12.1594H12.1663C12.1733 12.9612 12.9612 12.9542 13.4074 13.3934C13.6305 13.6096 13.7351 13.8954 13.7351 14.2719C13.7351 14.6484 13.6305 14.9343 13.4074 15.1504C12.9542 15.5966 12.1663 15.5897 12.1594 15.5897H12.1524H9.23109L9.23806 12.9612Z" fill="#3D3D3D"/>
<path d="M5.03386 25.762H12.6892C14.0139 25.762 15.1086 25.5528 15.9452 25.1414C17.2002 24.5209 17.9811 23.8098 18.4064 22.9034C18.5179 22.6594 18.6086 22.4014 18.6783 22.1225C18.9781 22.8197 19.3894 23.4612 19.8984 24.012C21.0767 25.2739 22.7012 25.9711 24.4791 25.9711C27.4492 25.9711 29.5618 24.6116 30.4123 22.1434C30.4472 22.0388 30.4333 21.9203 30.3635 21.8297C30.3008 21.739 30.1892 21.6833 30.0777 21.6833H27.1215C27.0169 21.6833 26.9193 21.7321 26.8496 21.8157C26.2361 22.5757 25.3576 22.7291 24.7301 22.7291C23.9422 22.7291 23.259 22.4641 22.7988 21.99C22.4432 21.6205 22.241 21.1255 22.1992 20.5398H30.4681C30.6494 20.5398 30.8028 20.4004 30.8167 20.2191C30.8446 19.9333 30.8516 19.6335 30.8516 19.3197C30.8516 15.6524 27.993 12.6753 24.4861 12.6753C21.3556 12.6753 18.741 15.0528 18.2181 18.1693C17.6882 17.3606 16.9004 16.8586 16.3357 16.5797C17.5 15.8058 18.1066 14.5926 18.0996 13.0379C18.0926 11.5877 17.4233 10.4373 16.1614 9.71216C15.2131 9.16136 14.1116 8.96614 13.4562 8.96614H5.02689C4.83167 8.96614 4.67828 9.11953 4.67828 9.31475V25.4134C4.68526 25.6086 4.83864 25.762 5.03386 25.762ZM24.4861 13.3725C27.6096 13.3725 30.1544 16.0428 30.1544 19.3197C30.1544 19.494 30.1474 19.6683 30.1404 19.8357H21.8506C21.6623 19.8357 21.509 19.9821 21.502 20.1703C21.4602 21.0906 21.739 21.8785 22.2968 22.4641C22.8894 23.0847 23.754 23.4193 24.7371 23.4193C25.7898 23.4193 26.6683 23.0568 27.2819 22.3735H29.5827C28.739 24.242 26.9472 25.2669 24.493 25.2669C21.2649 25.2669 18.8247 22.7082 18.8247 19.3128C18.8177 16.0428 21.3625 13.3725 24.4861 13.3725ZM5.38247 9.66335H13.4631C13.9163 9.66335 14.9273 9.80279 15.8197 10.3118C16.8655 10.9183 17.4024 11.8317 17.4094 13.0379C17.4163 14.5926 16.74 15.6942 15.3944 16.3147C15.262 16.3775 15.1853 16.51 15.1922 16.6564C15.1992 16.8028 15.3038 16.9213 15.4432 16.9632C15.4711 16.9701 17.8974 17.7161 18.0857 19.8287C18.2809 22.0388 17.9602 23.3775 15.6524 24.5139C14.9133 24.8765 13.9233 25.0647 12.7032 25.0647H5.39641V9.66335H5.38247Z" fill="#3D3D3D"/>
<path d="M22.1643 18.1972H26.8426C26.9402 18.1972 27.0378 18.1554 27.1076 18.0787C27.1773 18.002 27.2052 17.9044 27.1912 17.7998C26.996 16.3287 25.9362 15.3735 24.507 15.3735C23.0707 15.3735 22.0179 16.3287 21.8227 17.7998C21.8088 17.8974 21.8366 18.002 21.9064 18.0787C21.9691 18.1554 22.0598 18.1972 22.1643 18.1972ZM24.5 16.0707C25.4482 16.0707 26.1524 16.6076 26.4103 17.5H22.5896C22.8546 16.6076 23.5588 16.0707 24.5 16.0707Z" fill="#3D3D3D"/>
</svg>
