<svg width="17" height="15" viewBox="0 0 17 15" fill="none" xmlns="http://www.w3.org/2000/svg">
<path d="M6.42857 13C6.42857 12.2969 5.84598 11.7143 5.14286 11.7143C4.43973 11.7143 3.85714 12.2969 3.85714 13C3.85714 13.7031 4.43973 14.2857 5.14286 14.2857C5.84598 14.2857 6.42857 13.7031 6.42857 13ZM15.4286 13C15.4286 12.2969 14.846 11.7143 14.1429 11.7143C13.4397 11.7143 12.8571 12.2969 12.8571 13C12.8571 13.7031 13.4397 14.2857 14.1429 14.2857C14.846 14.2857 15.4286 13.7031 15.4286 13ZM16.7143 2.07143C16.7143 1.71987 16.423 1.42857 16.0714 1.42857H4.00781C3.90737 0.946428 3.88728 0.142857 3.21429 0.142857H0.642857C0.291295 0.142857 0 0.434151 0 0.785714C0 1.13728 0.291295 1.42857 0.642857 1.42857H2.69196L4.46987 9.69531C4.30915 10.0067 3.85714 10.76 3.85714 11.0714C3.85714 11.423 4.14844 11.7143 4.5 11.7143H14.7857C15.1373 11.7143 15.4286 11.423 15.4286 11.0714C15.4286 10.7199 15.1373 10.4286 14.7857 10.4286H5.54464C5.64509 10.2277 5.78571 10.0167 5.78571 9.78571C5.78571 9.54464 5.70536 9.31362 5.65513 9.08259L16.1417 7.85714C16.4632 7.81696 16.7143 7.53571 16.7143 7.21429V2.07143Z" fill="#FF8484"/>
</svg>
