<?xml version="1.0" encoding="utf-8"?>
<!-- Generator: Adobe Illustrator 19.1.1, SVG Export Plug-In . SVG Version: 6.00 Build 0)  -->
<svg version="1.1" id="Слой_1" xmlns="http://www.w3.org/2000/svg" xmlns:xlink="http://www.w3.org/1999/xlink" x="0px" y="0px"
	 viewBox="0 0 472 475" style="enable-background:new 0 0 472 475;" xml:space="preserve">
<style type="text/css">
	.st0{fill:#515151;}
</style>
<path class="st0" d="M248,38c-47.9,0-92.2,15.6-128.1,42L157,58.7l176,173l30,133.7L232,335L57.3,160.7l1.5-11
	C41.7,180.6,32,216.1,32,254c0,119.3,96.7,216,216,216s216-96.7,216-216S367.3,38,248,38z"/>
<path class="st0" d="M112.3,9c0,0-62,37.7-105,105.3c0,0-4,3.7,0,7.7s45.3,43.7,45.3,43.7l8-2c0,0,18-63,101.7-100.7l4-7.7L120.3,9
	C120.3,9,118.1,5.3,112.3,9z"/>
<path class="st0" d="M240.7,329.7c0,0,26.3-61,88.3-86.7l10.7,48.7c0,0-30.7,16.7-49.5,49.7L240.7,329.7z"/>
</svg>
