<svg width="35" height="35" viewBox="0 0 35 35" fill="none" xmlns="http://www.w3.org/2000/svg">
<path d="M17.8486 0H17.1514C7.6763 0 0 7.6763 0 17.1514V17.8486C0 27.3237 7.6763 35 17.1514 35H17.8486C27.3237 35 35 27.3237 35 17.8486V17.1514C35 7.6763 27.3237 0 17.8486 0ZM17.5 34.0239C8.22012 34.0239 0.976096 26.7799 0.976096 17.5C0.976096 8.22012 8.22012 0.976096 17.5 0.976096C26.7799 0.976096 34.0239 8.22012 34.0239 17.5C34.0239 26.7799 26.7799 34.0239 17.5 34.0239Z" fill="#3D3D3D"/>
<path d="M12.8984 26.9263H22.1016C24.7649 26.9263 26.9263 24.7649 26.9263 22.1016V12.8984C26.9263 10.2351 24.7649 8.0737 22.1016 8.0737H12.8984C10.2351 8.0737 8.0737 10.2351 8.0737 12.8984V22.1016C8.0737 24.7649 10.2351 26.9263 12.8984 26.9263ZM8.63844 12.8984C8.63844 10.5488 10.5488 8.63844 12.8984 8.63844H22.1016C24.4512 8.63844 26.3615 10.5488 26.3615 12.8984V22.1016C26.3615 24.4512 24.4512 26.3616 22.1016 26.3616H12.8984C10.5488 26.3616 8.63844 24.4512 8.63844 22.1016V12.8984Z" fill="#3D3D3D"/>
<path d="M12.8984 29.6594H22.1016C26.2709 29.6594 29.6594 26.2709 29.6594 22.1016V12.8984C29.6594 8.72908 26.2709 5.34064 22.1016 5.34064H12.8984C8.72908 5.34064 5.34064 8.72908 5.34064 12.8984V22.1016C5.34064 26.2709 8.72908 29.6594 12.8984 29.6594ZM5.91235 12.8984C5.91235 9.04283 9.0498 5.91235 12.8984 5.91235H22.1016C25.9572 5.91235 29.0876 9.0498 29.0876 12.8984V22.1016C29.0876 25.9572 25.9502 29.0876 22.1016 29.0876H12.8984C9.04283 29.0876 5.91235 25.9502 5.91235 22.1016V12.8984Z" fill="#3D3D3D"/>
<path d="M23.1683 13.0797C23.8516 13.0797 24.4163 12.5219 24.4163 11.8317C24.4163 11.1414 23.8586 10.5837 23.1683 10.5837C22.4851 10.5837 21.9203 11.1414 21.9203 11.8317C21.9203 12.5219 22.4781 13.0797 23.1683 13.0797ZM23.1683 11.1554C23.5448 11.1554 23.8446 11.4622 23.8446 11.8317C23.8446 12.2082 23.5378 12.508 23.1683 12.508C22.7988 12.508 22.492 12.2012 22.492 11.8317C22.4851 11.4622 22.7918 11.1554 23.1683 11.1554Z" fill="#3D3D3D"/>
<path d="M13.2122 24.8695C13.3656 24.8695 13.498 24.744 13.498 24.5837C13.498 24.4233 13.3725 24.2978 13.2122 24.2978C11.8247 24.2978 10.7022 23.1683 10.7022 21.7879V16.6494C10.7022 16.496 10.5767 16.3636 10.4163 16.3636C10.263 16.3636 10.1305 16.4891 10.1305 16.6494V21.7879C10.1305 23.4891 11.511 24.8695 13.2122 24.8695Z" fill="#3D3D3D"/>
<path d="M10.4164 14.6066C10.5697 14.6066 10.7022 14.4811 10.7022 14.3207V13.2052C10.7022 13.0518 10.5767 12.9193 10.4164 12.9193C10.263 12.9193 10.1305 13.0448 10.1305 13.2052V14.3207C10.1305 14.4811 10.256 14.6066 10.4164 14.6066Z" fill="#3D3D3D"/>
<path d="M21.8575 15.5757C21.9064 15.6803 22.0109 15.743 22.1155 15.743C22.1573 15.743 22.1922 15.736 22.2271 15.7151C22.3735 15.6524 22.4362 15.4851 22.3735 15.3386C22.1713 14.8854 21.9064 14.4602 21.5926 14.0837C21.495 13.9651 21.3137 13.9442 21.1952 14.0488C21.0767 14.1464 21.0558 14.3277 21.1603 14.4462C21.4462 14.7948 21.6832 15.1713 21.8575 15.5757Z" fill="#3D3D3D"/>
<path d="M17.5 14.5717C15.8825 14.5717 14.5717 15.8894 14.5717 17.5C14.5717 19.1106 15.8894 20.4283 17.5 20.4283C19.1106 20.4283 20.4283 19.1106 20.4283 17.5C20.4283 15.8825 19.1175 14.5717 17.5 14.5717ZM17.5 19.8636C16.1962 19.8636 15.1365 18.8038 15.1365 17.5C15.1365 16.1962 16.1962 15.1365 17.5 15.1365C18.8038 15.1365 19.8636 16.1962 19.8636 17.5C19.8636 18.8038 18.8038 19.8636 17.5 19.8636Z" fill="#3D3D3D"/>
<path d="M17.5 22.8337C20.4422 22.8337 22.8337 20.4422 22.8337 17.5C22.8337 17.3466 22.7082 17.2141 22.5478 17.2141C22.3944 17.2141 22.2619 17.3396 22.2619 17.5C22.2619 20.1285 20.1215 22.2689 17.493 22.2689C14.8645 22.2689 12.7241 20.1285 12.7241 17.5C12.7241 14.8715 14.8645 12.7311 17.493 12.7311C18.2042 12.7311 18.8874 12.8845 19.5289 13.1843C19.6683 13.254 19.8426 13.1912 19.9054 13.0518C19.9751 12.9124 19.9123 12.738 19.7729 12.6753C19.0548 12.3337 18.2948 12.1663 17.5 12.1663C14.5578 12.1663 12.1663 14.5578 12.1663 17.5C12.1663 20.4422 14.5578 22.8337 17.5 22.8337Z" fill="#3D3D3D"/>
</svg>
