<svg width="17" height="17" viewBox="0 0 17 17" fill="none" xmlns="http://www.w3.org/2000/svg">
<path d="M12.3982 0H4.60174C2.0643 0 0 2.0643 0 4.60174V12.3984C0 14.9357 2.0643 17 4.60174 17H12.3984C14.9357 17 17 14.9357 17 12.3984V4.60174C17 2.0643 14.9357 0 12.3982 0ZM8.49998 14.1667C5.19444 14.1667 2.83333 11.3333 2.83333 8.49998C2.83333 5.66667 5.19444 2.83333 8.49998 2.83333C12.1034 2.83333 14.1667 5.66667 14.1667 8.5C14.1667 11.8056 11.8055 14.1667 8.49998 14.1667ZM14.1667 3.77778C13.6944 3.77778 13.2222 3.30556 13.2222 2.83333C13.2222 2.36111 13.6944 1.88889 14.1667 1.88889C14.6389 1.88889 15.1111 2.36111 15.1111 2.83333C15.1111 3.30556 14.6389 3.77778 14.1667 3.77778Z" fill="white"/>
<path d="M8.49995 4.8483C6.4865 4.8483 4.84827 6.4864 4.84827 8.49999C4.84827 10.5134 6.4865 12.1517 8.49995 12.1517C10.5135 12.1517 12.1516 10.5134 12.1516 8.49999C12.1516 6.4864 10.5135 4.8483 8.49995 4.8483Z" fill="white"/>
<path d="M14.1667 2.45642C13.9589 2.45642 13.7898 2.62555 13.7898 2.83333C13.7898 3.04111 13.9589 3.21024 14.1667 3.21024C14.3746 3.21024 14.5437 3.04124 14.5437 2.83333C14.5437 2.62542 14.3746 2.45642 14.1667 2.45642Z" fill="white"/>
</svg>
