<?xml version="1.0" encoding="utf-8"?>
<!-- Generator: Adobe Illustrator 19.1.1, SVG Export Plug-In . SVG Version: 6.00 Build 0)  -->
<svg version="1.1" id="Слой_1" xmlns="http://www.w3.org/2000/svg" xmlns:xlink="http://www.w3.org/1999/xlink" x="0px" y="0px"
	 viewBox="0 0 647.4 560" style="enable-background:new 0 0 647.4 560;" xml:space="preserve">
<style type="text/css">
	.st0{fill-rule:evenodd;clip-rule:evenodd;}
</style>
<path class="st0" d="M319.2,185.5c10.4-2,9.8,1.6,33.5-8.1c17.2-8.2,16.1-12,23.8-16.9C388.1,187.2,330.5,212.8,319.2,185.5
	L319.2,185.5z M377.3,538.2l214.5-214.5c74-74,74-194.1,0-268.1C554.8,18.5,506.3,0,457.8,0c-48.5,0-97,18.5-134.1,55.5
	c-16.9-16.9-36-29.8-57.8-39.6c15,137.6-40.8,283.4-133.1,385l30.4,30.3c31.6-33.4,59.1-71.4,81.6-112.4c7.3,1.7,13.6,5.4,18.2,12
	c9.6,13.5,8.1,29.3-0.3,36.5c26.8,38.8,39.1-15.2,14.5-42.4c-5.5-6.1-13.5-10.8-20.9-13.4c-2.1-0.8-4.3-1.3-6.7-1.7
	c40.8-77.8,63.4-165.5,60.9-251.5c25.5,8.1,71.4,43.2,77.6,70.4c6.9,30.2,5,30.1,33.8,39.3c64.2,20.5,61.5,11.5,37.8,60.6
	c-9.9,20.6,14.9,20.8,20,29.5c5.1,8.7-0.6,11.2-2.3,20.2c-1.7,9.1,1.1,7.2,4.8,13.8c3.7,6.7,4,13.4,1.1,18.9
	c-3.4,6.4-7,2.5-12.1,8.6c-14.9,17.7,13.7,50.9,7.2,67.6c-5.3,13.7-50.9,14.5-67.9,18.1c-29.6,6.3-38.6,13-52.7,31.4
	c-19.8,25.9-53.2,75-67.4,104.4l-4.4,9C314.6,566.7,353.6,561.9,377.3,538.2L377.3,538.2z M229.8,4.3
	c14.6,132-36.3,271.6-121.5,372.2l-24.7-24.7c76.6-99.6,120.8-225.4,115.9-351.5C209.7,0.8,219.8,2.1,229.8,4.3L229.8,4.3z M161.8,2
	c4.7,114.8-36.3,231.4-105.1,322.8l-1.1-1.1c-74-74-74-194.1,0-268.1C85.5,25.6,122.9,7.8,161.8,2z"/>
</svg>
