<svg width="110" height="54" viewBox="0 0 110 54" fill="none" xmlns="http://www.w3.org/2000/svg">
<g clip-path="url(#clip0)">
<path d="M14.3131 53.6023H9.76208C8.21034 53.6023 6.92494 53.0351 5.91746 51.8892C4.90999 50.7434 4.40046 49.2966 4.40046 47.5488V30.8932L0 26.2865V25.43L4.40046 20.8465V6.06596C4.40046 4.30664 4.90999 2.85983 5.91746 1.72553C6.92494 0.579661 8.21034 0.0125122 9.76208 0.0125122H14.3131V3.58902C14.0815 3.58902 13.6762 3.57745 13.0972 3.54272C12.5066 3.508 12.0665 3.49642 11.7539 3.49642C9.28729 3.49642 8.0598 4.51498 8.0598 6.56366V20.2794C8.0598 21.5063 7.63133 22.5827 6.7744 23.5318C5.88272 24.2957 5.00263 25.0828 4.13412 25.8699C5.00263 26.6338 5.8943 27.4208 6.7744 28.2079C7.63133 29.157 8.0598 30.2334 8.0598 31.4256V47.0627C8.0598 49.0882 9.28729 50.1068 11.7539 50.1068C12.0665 50.1068 12.5182 50.0952 13.0972 50.0605C13.6762 50.0258 14.0931 50.0142 14.3131 50.0142V53.6023Z" fill="#3B71B2"/>
<path d="M33.7215 42.9297C33.7215 45.1635 32.7487 46.2747 30.7917 46.2747H22.4076C20.4506 46.2747 19.4778 45.1635 19.4778 42.9297V20.8456C19.4778 18.6233 20.4506 17.5006 22.4076 17.5006H30.7917C32.7487 17.5006 33.7215 18.6117 33.7215 20.8456V31.1932L32.5403 32.5821H22.8477V42.9875H30.34V37.7212H33.7215V42.9297ZM30.34 29.4454V20.7877H22.8477V29.4454H30.34Z" fill="black"/>
<path d="M62.2666 17.5006L56.9976 46.321H53.8825L50.1421 24.48L46.3902 46.3326H43.3214L38.0524 17.5122H41.3296L44.9195 39.6772L48.6367 17.5122H51.6707L55.388 39.6772L58.9778 17.5122H62.2666V17.5006Z" fill="black"/>
<path d="M80.957 46.2631H77.5292V45.4645C76.1512 45.6844 74.7731 45.8927 73.3951 46.0895C71.6812 46.3326 70.3148 46.4483 69.2841 46.4483C67.385 46.4483 66.4354 45.3835 66.4354 43.2538V32.7557C66.4354 30.545 67.4197 29.4454 69.4 29.4454H77.5987V20.7877H70.1063V25.6953H66.7249V20.8456C66.7249 18.6233 67.6977 17.5006 69.6547 17.5006H78.0387C79.9958 17.5006 80.9685 18.6117 80.9685 20.8456L80.957 46.2631ZM77.5871 42.6866V32.5127H69.8053V42.8602L77.5871 42.6866Z" fill="black"/>
<path d="M90.3137 46.2631H86.886V0H90.3137V46.2631Z" fill="black"/>
<path d="M110 26.2856L105.6 30.8922V47.5363C105.6 49.2725 105.09 50.7193 104.071 51.8652C103.052 53.0226 101.766 53.5897 100.238 53.5897H95.6869V50.0132C95.9185 50.0132 96.3238 50.0248 96.9028 50.0595C97.4934 50.0943 97.9334 50.1058 98.2577 50.1058C100.736 50.1058 101.975 49.0873 101.975 47.0618V31.4247C101.975 30.2209 102.403 29.1445 103.26 28.207C104.129 27.4199 105.009 26.6444 105.877 25.8689C105.009 25.0819 104.129 24.3064 103.26 23.5309C102.403 22.5818 101.975 21.5053 101.975 20.2785V6.56272C101.975 4.51404 100.736 3.48391 98.2577 3.48391C97.945 3.48391 97.4934 3.49549 96.9028 3.53021C96.3122 3.56493 95.9069 3.57651 95.6869 3.57651V0H100.238C101.778 0 103.052 0.578723 104.071 1.72459C105.09 2.87047 105.6 4.31727 105.6 6.05344V20.834L110 25.4175V26.2856Z" fill="#3B71B2"/>
</g>
<defs>
<clipPath id="clip0">
<rect width="110" height="53.5897" fill="white"/>
</clipPath>
</defs>
</svg>
