<svg width="18" height="18" viewBox="0 0 18 18" fill="none" xmlns="http://www.w3.org/2000/svg">
<g clip-path="url(#clip0)">
<path d="M16.1585 5.32933C16.166 5.48712 16.1697 5.64544 16.1697 5.80589C16.1697 10.6868 12.4549 16.3142 5.66138 16.3142C3.57448 16.3142 1.63422 15.7038 -0.000549316 14.655C0.289533 14.6885 0.583335 14.7055 0.880324 14.7055C2.61232 14.7055 4.20299 14.1173 5.46639 13.1254C3.85181 13.0946 2.48747 12.0283 2.01781 10.5604C2.24308 10.6039 2.47365 10.6268 2.71273 10.6268C3.0501 10.6268 3.37578 10.5822 3.68499 10.4972C1.99709 10.1577 0.722532 8.66528 0.722532 6.87643C0.722532 6.86103 0.722532 6.84562 0.722532 6.83021C1.22141 7.10701 1.79042 7.27277 2.39609 7.2919C1.40577 6.63045 0.753878 5.49881 0.753878 4.21734C0.753878 3.54048 0.936109 2.90666 1.25329 2.36049C3.07401 4.59509 5.79685 6.06516 8.86504 6.21923C8.80287 5.94881 8.7694 5.66776 8.7694 5.37767C8.7694 3.33859 10.4228 1.68576 12.4634 1.68576C13.525 1.68576 14.485 2.13417 15.1571 2.85034C15.9976 2.68511 16.7892 2.3775 17.5032 1.95459C17.2264 2.8174 16.642 3.54101 15.8791 3.99686C16.6261 3.90866 17.338 3.70996 17.9995 3.41669C17.5054 4.15784 16.8795 4.80813 16.1585 5.32933Z" fill="white"/>
</g>
<defs>
<clipPath id="clip0">
<rect width="18" height="18" fill="white"/>
</clipPath>
</defs>
</svg>
