<svg width="35" height="35" viewBox="0 0 35 35" fill="none" xmlns="http://www.w3.org/2000/svg">
<path d="M17.8486 0H17.1514C7.6763 0 0 7.6763 0 17.1514V17.8486C0 27.3237 7.6763 35 17.1514 35H17.8486C27.3237 35 35 27.3237 35 17.8486V17.1514C35 7.6763 27.3237 0 17.8486 0ZM17.5 34.0239C8.22012 34.0239 0.976096 26.7799 0.976096 17.5C0.976096 8.22012 8.22012 0.976096 17.5 0.976096C26.7799 0.976096 34.0239 8.22012 34.0239 17.5C34.0239 26.7799 26.7799 34.0239 17.5 34.0239Z" fill="#3D3D3D"/>
<path d="M5.66833 14.753C7.04184 17.5 8.25499 19.494 9.60758 21.2231C10.7161 22.6384 11.9014 23.6703 13.2331 24.3884C14.7739 25.2181 16.5169 25.5458 18.7062 25.4273C19.4871 25.3855 19.9821 24.9183 20.0379 24.1723C20.0448 24.0468 20.2122 22.8197 20.3865 22.3805C20.4353 22.262 20.5189 22.1155 20.6514 22.0737C20.7699 22.0388 20.9303 22.0946 21.1046 22.2271C21.2789 22.3596 21.4532 22.5199 21.6414 22.7151C21.8506 22.9313 22.0598 23.1614 22.262 23.3845C22.6315 23.7888 23.0149 24.2002 23.4124 24.5906C24.0259 25.1763 24.7789 25.4831 25.6504 25.4831C25.6713 25.4831 25.748 25.4831 25.8735 25.49C26.5777 25.504 27.4283 25.5249 28.1325 25.5249C28.6902 25.5249 29.1504 25.511 29.3665 25.4831C29.9173 25.4064 30.3287 25.1345 30.5169 24.7301C30.7122 24.3118 30.6424 23.8167 30.3357 23.3287C29.9383 22.7012 29.4642 22.0807 28.9273 21.495C28.509 21.0418 28.0628 20.6026 27.6305 20.1773C27.3307 19.8845 27.0239 19.5847 26.7311 19.2849C26.3825 18.9223 26.3616 18.755 26.6126 18.3018C26.7102 18.1345 26.7938 17.995 26.8775 17.8765C26.9751 17.744 26.9472 17.5488 26.8147 17.4512C26.6823 17.3536 26.4871 17.3815 26.3895 17.5139C26.2849 17.6534 26.1873 17.8068 26.0827 18.002C25.6992 18.6922 25.762 19.1524 26.2918 19.7032C26.5916 20.01 26.9054 20.3167 27.2052 20.6096C27.6305 21.0279 28.0697 21.4532 28.4811 21.8994C28.997 22.4641 29.4502 23.0498 29.8267 23.6494C30.0219 23.9562 30.0707 24.249 29.9661 24.4721C29.8685 24.6882 29.6245 24.8277 29.2829 24.8765C28.9622 24.9253 27.8187 24.9253 25.8944 24.8765C25.7689 24.8765 25.6853 24.8695 25.6644 24.8695C24.9532 24.8695 24.3466 24.6255 23.8446 24.1444C23.4542 23.7679 23.0777 23.3635 22.7151 22.9661C22.513 22.743 22.2968 22.5129 22.0877 22.2898C21.8785 22.0667 21.6763 21.8855 21.4811 21.739C21.1534 21.488 20.8048 21.3974 20.498 21.4811C20.2889 21.5369 20.01 21.6972 19.8287 22.1434C19.6126 22.6873 19.4452 24.0259 19.4383 24.1096C19.4104 24.5418 19.1524 24.7719 18.6783 24.7998C16.6006 24.9114 14.9622 24.6046 13.5189 23.8376C12.2639 23.1683 11.1414 22.1853 10.0887 20.8396C8.76395 19.1454 7.56475 17.1793 6.21216 14.4741C6.14244 14.3416 5.08965 12.0966 5.00598 11.8735C4.95718 11.6853 4.96415 11.4552 5.12451 11.3785C5.51495 11.3227 8.77789 11.3855 9.02889 11.3924C9.53785 11.4203 9.82371 11.6295 10.0189 12.1106C10.8068 14.0558 11.741 15.6873 12.8775 17.1165C13.0448 17.3257 13.2679 17.5279 13.512 17.6952C13.749 17.8556 14 17.9044 14.2161 17.8347C14.4323 17.7649 14.5996 17.5837 14.6902 17.3327C14.8367 16.9213 14.9622 16.1335 14.9691 15.7291C14.99 14.7112 14.9691 14.0418 14.9134 13.0169C14.8645 12.0687 14.3835 11.5249 13.4632 11.3506C13.4701 11.3367 13.4841 11.3157 13.498 11.2948C13.7908 10.9183 14.1883 10.8277 14.8088 10.7928C15.513 10.758 16.2381 10.7649 16.9353 10.7789C17.1863 10.7859 17.4373 10.7859 17.6883 10.7928C18.1066 10.7998 18.4691 10.8347 18.8038 10.9044C19.1524 10.9811 19.3616 11.2112 19.4243 11.6155C19.4661 11.8596 19.4871 12.1036 19.4801 12.3337C19.4731 12.7869 19.4522 13.247 19.4383 13.6932C19.4173 14.3347 19.3964 14.997 19.3894 15.6524C19.3825 16.1544 19.4243 16.6145 19.5149 17.0189C19.6404 17.5767 19.9402 17.7371 20.1145 17.7859C20.2749 17.8347 20.6096 17.8556 20.9721 17.4721C21.4323 16.998 21.8785 16.4402 22.4153 15.6733C23.1126 14.6693 23.7191 13.498 24.3187 11.9851C24.5349 11.4412 24.6255 11.3785 25.2042 11.3785C26.7381 11.3715 28 11.3715 29.1783 11.3785C29.4223 11.3785 29.6245 11.4064 29.7918 11.4552C29.9243 11.497 30.0707 11.5877 30.008 11.8805C29.9731 12.0408 30.0707 12.2082 30.2381 12.243C30.3984 12.2779 30.5657 12.1803 30.6006 12.013C30.7191 11.4831 30.4751 11.0369 29.9801 10.8765C29.757 10.8068 29.499 10.7719 29.1853 10.7719C28.007 10.7649 26.745 10.7649 25.2042 10.7719C24.3745 10.7719 24.0677 10.9881 23.761 11.762C23.1823 13.2261 22.5966 14.3626 21.9273 15.3247C21.4114 16.0637 20.9861 16.6006 20.5468 17.0538C20.4143 17.1932 20.3237 17.2141 20.2889 17.2002C20.254 17.1932 20.1703 17.1096 20.1215 16.8865C20.0448 16.5239 20.003 16.1126 20.01 15.6524C20.0169 15.004 20.0379 14.3416 20.0588 13.7072C20.0727 13.261 20.0867 12.8008 20.1006 12.3406C20.1076 12.0757 20.0867 11.7968 20.0379 11.511C19.9263 10.8626 19.5428 10.4373 18.9432 10.3048C18.5737 10.2211 18.1693 10.1793 17.7092 10.1793C17.4582 10.1793 17.2141 10.1723 16.9632 10.1653C16.245 10.1793 15.513 10.1653 14.7879 10.2072C14.1883 10.242 13.512 10.3257 13.0309 10.9392C12.8566 11.1624 12.8008 11.4064 12.8845 11.6086C12.9263 11.7201 13.0379 11.9084 13.3516 11.9641C14.1116 12.1036 14.2928 12.508 14.3207 13.0727C14.3765 14.0837 14.3974 14.739 14.3765 15.7361C14.3695 16.0847 14.258 16.7958 14.1325 17.1444C14.1046 17.2281 14.0697 17.263 14.0418 17.2699C14.014 17.2769 13.9512 17.2699 13.8675 17.2072C13.6723 17.0747 13.498 16.9143 13.3655 16.747C12.264 15.3665 11.3576 13.7769 10.5906 11.8944C10.3048 11.1972 9.80977 10.8416 9.06375 10.7998C9.02889 10.7998 5.23606 10.6952 4.92929 10.8138C4.48307 10.9881 4.28088 11.4831 4.4273 12.0478C4.46913 12.2082 5.66136 14.7321 5.66833 14.753Z" fill="#3D3D3D"/>
<path d="M28.8227 13.9791C28.6136 14.2998 28.3765 14.6554 28.1116 15.0458C28.0209 15.1853 28.0558 15.3665 28.1952 15.4641C28.251 15.499 28.3138 15.5199 28.3765 15.5129C28.4671 15.506 28.5578 15.4641 28.6136 15.3805C28.8855 14.9831 29.1155 14.6275 29.3317 14.2998C29.4223 14.1604 29.3805 13.9791 29.248 13.8884C29.1016 13.7978 28.9134 13.8396 28.8227 13.9791Z" fill="#3D3D3D"/>
</svg>
