<svg width="24" height="24" viewBox="0 0 24 24" fill="none" xmlns="http://www.w3.org/2000/svg">
<g clip-path="url(#clip0)">
<path fill-rule="evenodd" clip-rule="evenodd" d="M20.6554 13.8449C21.4515 14.6222 22.2918 15.3535 23.0058 16.2091C23.3212 16.5893 23.6199 16.9817 23.8483 17.423C24.172 18.0503 23.8788 18.7406 23.3163 18.778L19.82 18.7764C18.9182 18.8513 18.1988 18.4882 17.5939 17.8717C17.1098 17.3786 16.6615 16.8538 16.1961 16.3441C16.0052 16.1358 15.8055 15.9397 15.5669 15.7848C15.0896 15.475 14.6753 15.5698 14.4025 16.0676C14.1247 16.574 14.0617 17.1346 14.0344 17.6989C13.997 18.5222 13.7481 18.7387 12.9211 18.7764C11.1537 18.8597 9.47629 18.5923 7.91806 17.7007C6.54426 16.9147 5.47894 15.8051 4.5517 14.5488C2.74634 12.1027 1.36379 9.41479 0.121208 6.65159C-0.158487 6.02904 0.0460603 5.69485 0.732957 5.68302C1.87358 5.66087 3.01405 5.66244 4.15601 5.68145C4.61959 5.68823 4.92649 5.95412 5.10549 6.39208C5.7226 7.90947 6.47771 9.35313 7.42553 10.6913C7.67794 11.0475 7.93532 11.4038 8.30184 11.6546C8.7073 11.9322 9.01602 11.8402 9.20677 11.3885C9.32781 11.1021 9.3808 10.7936 9.40808 10.4869C9.49845 9.43159 9.51035 8.3781 9.35186 7.3265C9.25455 6.6702 8.88488 6.24533 8.23 6.12114C7.89582 6.05782 7.94558 5.93347 8.10738 5.74272C8.38842 5.41374 8.65274 5.20895 9.17964 5.20895H13.1311C13.7532 5.33173 13.8913 5.61119 13.9765 6.23713L13.9799 10.6264C13.9731 10.8687 14.1009 11.5878 14.5374 11.7482C14.8867 11.8623 15.117 11.5829 15.3265 11.3614C16.2726 10.3573 16.9479 9.17058 17.5511 7.9418C17.8188 7.40149 18.049 6.84037 18.2721 6.27971C18.4373 5.86368 18.6967 5.65897 19.1653 5.66804L22.9684 5.67143C23.0811 5.67143 23.1952 5.67309 23.3044 5.69178C23.9453 5.80099 24.1209 6.07666 23.923 6.70245C23.6111 7.68426 23.0043 8.50245 22.411 9.32443C21.7768 10.202 21.0985 11.0495 20.4696 11.9323C19.8917 12.7384 19.9376 13.1448 20.6554 13.8449Z" fill="white"/>
</g>
<defs>
<clipPath id="clip0">
<rect width="24" height="24" fill="white"/>
</clipPath>
</defs>
</svg>
